<svg version="1.1" xmlns="http://www.w3.org/2000/svg" viewBox="0 0 1262.3410873125486 810.9618171191253" width="2524.682174625097" height="1621.9236342382505">
  <!-- svg-source:excalidraw -->
  
  <defs>
    <style class="style-fonts">
      @font-face {
        font-family: "Virgil";
        src: url("https://excalidraw.com/Virgil.woff2");
      }
      @font-face {
        font-family: "Cascadia";
        src: url("https://excalidraw.com/Cascadia.woff2");
      }
    </style>
    
  </defs>
  <rect x="0" y="0" width="1262.3410873125486" height="810.9618171191253" fill="#ffffff"></rect><g stroke-linecap="round" transform="translate(10 10) rotate(0 621.1705436562743 395.48090855956264)"><path d="M-0.23 -0.69 C304.92 -3.05, 610.06 -4.22, 1241.93 1.12 M-0.45 -0.14 C344.58 -2.79, 687.63 -2.41, 1242.24 0.51 M1242.76 -1.05 C1244.88 209.87, 1245.9 419.63, 1240.93 792.09 M1241.56 0.65 C1238.57 253.38, 1239.48 507.9, 1242.86 790.24 M1241.36 790.22 C994.01 797.79, 743.95 796.29, -0.72 790.38 M1242.1 790.29 C840.77 785.99, 440.93 786.39, 0.48 790.79 M-0.75 792.52 C-2.17 604.62, -4.15 416.39, 0.58 1.34 M-0.42 791.41 C3.69 480.07, 3.96 170.06, -0.55 -0.8" stroke="#1e1e1e" stroke-width="4" fill="none"></path></g><g transform="translate(55.14916862414964 32.35934465354421) rotate(0 34.50599670410156 22.5)"><text x="34.50599670410156" y="0" font-family="Virgil, Segoe UI Emoji" font-size="36px" fill="#1e1e1e" text-anchor="middle" style="white-space: pre;" direction="ltr" dominant-baseline="text-before-edge">JVM</text></g><g stroke-linecap="round" transform="translate(40.74409889862329 88.25770628740463) rotate(0 173.28492106496736 128.56623175787905)"><path d="M0.27 -2.27 C96.68 5.33, 195.05 5.3, 349.11 0.22 M346.51 -2.78 C350.46 86.32, 347.01 174.88, 347.52 260.33 M345.59 256.58 C214.8 257.16, 86.82 254.92, 1.1 255.77 M-0.41 256.77 C1.78 187.54, -4.04 121.96, -2.1 -2.83" stroke="#1971c2" stroke-width="4.5" fill="none" stroke-dasharray="8 12"></path></g><g stroke-linecap="round" transform="translate(452.994515948344 91.05262436909771) rotate(0 173.28492106496742 128.56623175787905)"><path d="M0.09 -1.08 C131.53 2.18, 262.14 -2.33, 344.02 2.3 M1.2 0.35 C79.07 -1.24, 160.27 -3.39, 346.86 -0.88 M344.13 2.68 C348.28 59.31, 343.63 124.53, 344.71 254.18 M345.86 -1.1 C347.73 74.4, 346.33 149.02, 346.11 257.99 M347.32 258.68 C231.62 254.36, 121.43 255.41, 2.3 258.11 M345.5 257.22 C254.04 254.57, 161.99 255.18, -1.02 257.74 M1.92 257.88 C-1.39 157.68, -0.32 66.56, 1.01 -0.62 M0.24 255.76 C3.16 174.35, 2.71 89.79, -1.22 1.1" stroke="#e64980" stroke-width="4" fill="none"></path></g><g stroke-linecap="round" transform="translate(876.424605324837 92.45008340994411) rotate(0 173.28492106496742 128.56623175787905)"><path d="M-1.16 -1.8 C103.58 -5.32, 202.29 -5.82, 345.82 1.4 M347.48 1.89 C342.67 81.78, 346.09 166.88, 349.4 258.33 M344.44 257.3 C253.67 255.18, 161.72 256.4, -2.05 258.35 M1.92 257.88 C-1.39 157.68, -0.32 66.56, 1.01 -0.62" stroke="#e03131" stroke-width="4.5" fill="none" stroke-dasharray="8 12"></path></g><g transform="translate(134.16631669370213 119.00180518602792) rotate(0 86.8499984741211 22.5)"><text x="86.8499984741211" y="0" font-family="Virgil, Segoe UI Emoji" font-size="36px" fill="#1e1e1e" text-anchor="middle" style="white-space: pre;" direction="ltr" dominant-baseline="text-before-edge">메소드 캐시</text></g><g transform="translate(997.9939541823586 116.20688710433484) rotate(0 71.27999877929688 22.5)"><text x="71.27999877929688" y="0" font-family="Virgil, Segoe UI Emoji" font-size="36px" fill="#1e1e1e" text-anchor="middle" style="white-space: pre;" direction="ltr" dominant-baseline="text-before-edge">코드 캐시</text></g><g transform="translate(517.9079789490277 109.21959190010227) rotate(0 106.97399902343756 22.5)"><text x="106.9739990234375" y="0" font-family="Virgil, Segoe UI Emoji" font-size="36px" fill="#1e1e1e" text-anchor="middle" style="white-space: pre;" direction="ltr" dominant-baseline="text-before-edge">JIT 컴파일러</text></g><g stroke-linecap="round" transform="translate(202.8493476368186 211.23410188189763) rotate(0 42.62250074581857 41.225041704972085)"><path d="M0 0 C0 0, 0 0, 0 0 M0 0 C0 0, 0 0, 0 0 M3.5 21.4 C4.48 17.65, 16.7 10.08, 21.15 -3.83 M1.68 25.7 C8.05 16.12, 13.35 8.45, 19.91 -1.43 M-0.04 47.63 C15.52 33.31, 29.59 19.59, 42.8 -3.47 M0.15 47.99 C13.18 33.81, 27.54 15.45, 41.96 -0.11 M-0.96 76.59 C18.69 52.85, 40.88 30.5, 62.36 1.24 M-0.16 71.4 C26.56 45.32, 53.09 17.05, 63.04 0.91 M4.52 87.4 C35.45 50.41, 72.55 21.3, 85.23 -2.54 M6.69 87.65 C33.4 58.91, 59.39 25.98, 83.72 -0.14 M31.4 85.14 C48.17 61.72, 70.47 42.98, 100.78 8.99 M27.06 89.9 C54.94 61.66, 78.83 31.05, 97.87 9.96 M48.48 87.35 C65.42 73.22, 77.15 63.1, 96.87 37.3 M50.97 89.69 C58.52 75.97, 71.29 64.06, 97.94 32.74 M74.63 92.72 C74.97 78.22, 84.48 73.49, 94.02 56.33 M71.07 89.8 C77.93 79.73, 86.87 70.8, 97.78 59.18" stroke="#a5d8ff" stroke-width="2" fill="none"></path><path d="M0.32 -0.92 C28.57 0.4, 52.34 -0.94, 81.39 -0.91 M88.78 0.52 C83.57 17.65, 81.98 37.6, 87.54 83.97 M82.68 79.79 C57.02 85.01, 25.13 80.96, 3.41 81.91 M-2.91 82.86 C-4.79 53.6, -4.33 25.58, 1.81 3.26" stroke="#1971c2" stroke-width="4.5" fill="none" stroke-dasharray="1.5 10"></path></g><g stroke-linecap="round" transform="translate(1004.990837082716 207.0417247593581) rotate(0 55.89836163386053 45.4174188275116)"><path d="M0 0 C0 0, 0 0, 0 0 M0 0 C0 0, 0 0, 0 0 M-0.86 24.13 C7.77 18.39, 12.43 7.94, 24.85 -1.21 M-0.45 24.8 C9.82 13.45, 15.6 5.52, 19.66 0.3 M-1.61 51.15 C17.65 28.52, 33.01 10.19, 41.14 -3.3 M-0.03 47.79 C10.03 36.93, 20.36 23.89, 41.39 -0.84 M-2.5 73.28 C26.84 48.02, 47.13 18.63, 60.21 -1.37 M1.97 72.38 C15.6 54.07, 26.53 38.05, 64.97 -0.37 M4.53 93.54 C27.79 65.87, 52.9 35.57, 83.75 2.55 M2.78 95.56 C21.67 70.31, 42.69 45.51, 86.09 -2.12 M25.4 90.86 C45.84 68.16, 65.75 47.73, 109.69 -3.92 M22.8 92.59 C45.12 71.64, 65.41 49.15, 106.77 -1.72 M47.12 94.01 C72.69 62.5, 95.63 32.13, 120.06 11.61 M45.24 95.72 C71.6 63.21, 100.52 31.02, 121.63 7.31 M69.41 96.09 C80.03 73.01, 103.12 54.33, 120 32.11 M65.92 95.36 C80.95 78.54, 90.71 63.32, 121.18 32.05 M85.44 94.58 C102.93 76.15, 111.45 61.84, 120.58 55.42 M86.45 92.77 C96.46 86.38, 103.6 79.46, 120.95 55.08" stroke="#ffc9c9" stroke-width="2" fill="none"></path><path d="M1.81 3.26 C33.95 -0.57, 69.99 -2.14, 111.37 -3.33 M110.01 3.96 C111.16 28.07, 110.96 56.05, 113.52 87.57 M110.27 94.31 C82.7 90.84, 49.69 95.75, -2.68 88.53 M-0.11 87.07 C-0.46 59.68, -5.28 37.23, 3.24 1.04" stroke="#e03131" stroke-width="4.5" fill="none" stroke-dasharray="1.5 10"></path></g><g stroke-linecap="round"><g transform="translate(608.1124694823069 228.00361037205573) rotate(0 17.76014871880392 40.606984998613655)"><path d="M-1.52 2.72 C-5.28 7.98, -25.99 18.65, -22.78 31.04 C-19.56 43.43, 4.25 76.5, 17.77 77.04 C31.3 77.57, 57.48 46.24, 58.38 34.25 C59.28 22.26, 28.6 9.73, 23.19 5.09 M2.86 1.72 C-1.05 7.29, -27.19 20.35, -23.73 33.31 C-20.26 46.27, 9.75 79.09, 23.63 79.49 C37.51 79.89, 58.94 47.89, 59.55 35.72 C60.16 23.56, 33.7 11.6, 27.28 6.51" stroke="#1e1e1e" stroke-width="4" fill="none"></path></g><g transform="translate(608.1124694823069 228.00361037205573) rotate(0 17.76014871880392 40.606984998613655)"><path d="M53.37 14.73 C39.44 7.12, 34.77 9.82, 24.31 3.69 M49.82 11.8 C40.71 10.93, 33.56 10.42, 28.07 6.55" stroke="#1e1e1e" stroke-width="4" fill="none"></path></g><g transform="translate(608.1124694823069 228.00361037205573) rotate(0 17.76014871880392 40.606984998613655)"><path d="M45.08 27.87 C33.62 16.51, 31.38 15.36, 24.31 3.69 M41.52 24.95 C35.1 19.57, 30.71 14.7, 28.07 6.55" stroke="#1e1e1e" stroke-width="4" fill="none"></path></g></g><mask></mask><g stroke-linecap="round"><g transform="translate(248.9654959847535 253.15787310729297) rotate(0 157.1409155776854 15.80818975238499)"><path d="M-1.84 -2.11 C50.66 3.45, 262.71 27.83, 316.12 33.72 M2.36 2.92 C54.29 7.63, 260.74 25.34, 313.28 29.57" stroke="#1e1e1e" stroke-width="4" fill="none"></path></g><g transform="translate(248.9654959847535 253.15787310729297) rotate(0 157.1409155776854 15.80818975238499)"><path d="M281.33 35.87 C296.42 37.17, 305.56 31.32, 312.76 29.91 M283.93 36.29 C292.99 35.83, 298.79 31.6, 311.96 28.18" stroke="#1e1e1e" stroke-width="4" fill="none"></path></g><g transform="translate(248.9654959847535 253.15787310729297) rotate(0 157.1409155776854 15.80818975238499)"><path d="M283.03 15.42 C297.6 23.65, 306.16 24.76, 312.76 29.91 M285.64 15.84 C294.05 20.85, 299.39 22.1, 311.96 28.18" stroke="#1e1e1e" stroke-width="4" fill="none"></path></g></g><mask></mask><g transform="translate(553.6067361848292 186.88746202412085) rotate(0 79.65999603271484 17.5)"><text x="79.65999603271484" y="0" font-family="Virgil, Segoe UI Emoji" font-size="28px" fill="#1e1e1e" text-anchor="middle" style="white-space: pre;" direction="ltr" dominant-baseline="text-before-edge">컴파일 스레드</text></g><g stroke-linecap="round"><g transform="translate(679.3828805654788 274.1197587199906) rotate(0 187.79547213684418 -9.22691776521954)"><path d="M0.61 -1.79 C63.52 -4.63, 315.67 -14.64, 378.1 -17.32 M-2.51 3.42 C60.04 -0.28, 312.39 -18.87, 376.29 -21.87" stroke="#1e1e1e" stroke-width="4" fill="none"></path></g><g transform="translate(679.3828805654788 274.1197587199906) rotate(0 187.79547213684418 -9.22691776521954)"><path d="M346.23 -8.76 C358.89 -16.92, 366.98 -17.55, 378.57 -24.05 M350.73 -8.51 C359.79 -13.89, 368.3 -18.25, 376.05 -22.19" stroke="#1e1e1e" stroke-width="4" fill="none"></path></g><g transform="translate(679.3828805654788 274.1197587199906) rotate(0 187.79547213684418 -9.22691776521954)"><path d="M344.96 -29.24 C357.99 -30.8, 366.49 -24.83, 378.57 -24.05 M349.46 -28.99 C359.27 -26.74, 368.25 -23.45, 376.05 -22.19" stroke="#1e1e1e" stroke-width="4" fill="none"></path></g></g><mask></mask><g stroke-linecap="round" transform="translate(473.95640156104173 476.75131964273476) rotate(0 171.8874620241208 137.64971552338136)"><path d="M31.92 58.22 C31.92 58.22, 31.92 58.22, 31.92 58.22 M31.92 58.22 C31.92 58.22, 31.92 58.22, 31.92 58.22 M11.45 103.2 C36.45 83.51, 49.87 55.75, 75.86 30.51 M15.7 100.59 C39.97 74.86, 61.56 47.91, 75.6 29.88 M2.96 145.54 C34.5 111.43, 59.4 75.43, 118.9 7.38 M3.46 140.39 C47.13 92.75, 90.17 41.48, 119.6 5.25 M6.35 158.05 C48.27 117.72, 88.56 68.33, 146.3 0.1 M6.58 160.14 C57.52 99.11, 113.16 38.64, 142.54 4.49 M6.54 180.45 C66.75 123.13, 116.99 61.21, 169.59 0.64 M8.35 181 C64.31 119.35, 118.79 57.42, 168.54 -1.33 M16.82 193.29 C73.8 135.42, 125.01 75, 184.7 9.22 M18.7 194.72 C73.22 127.42, 130.02 61.69, 182.38 8.34 M25.97 207.47 C72.02 159.44, 110.42 106.63, 204.6 6.98 M28.25 206.87 C95.09 131.11, 165.76 50.39, 200.53 8.82 M39.86 223.05 C80.55 176.79, 124.72 131.17, 226.04 5.81 M39.01 220.5 C104.74 149.42, 168.76 78.24, 223.48 7.31 M49.42 229.66 C103.18 171.66, 158.71 111.38, 238.1 11.8 M51.55 230.95 C118.63 160.81, 183.27 85.24, 240.33 12.65 M63.11 240.37 C99.46 188.89, 146.38 141.95, 255.19 17.35 M62.7 242.37 C113.06 180.21, 166.35 122.31, 257.19 19.11 M73.63 255.96 C113.02 209.99, 151.04 162.85, 274.31 28.37 M75.29 255.02 C140.17 177.12, 207.25 100.88, 271.24 25.38 M89.09 256.03 C132.61 208.93, 172.21 164.52, 286.83 38.57 M89.41 259.02 C155.28 189.31, 215.78 120.3, 285.27 37.04 M104.18 264.18 C160.3 201.71, 220.97 133.18, 294.11 46.2 M106.67 265.98 C174.15 185.49, 242.63 104.97, 296.48 45.39 M123.78 273.29 C182.87 208.67, 240.61 141.75, 309 52.97 M123.21 269.76 C171.37 213.3, 220.67 158.68, 309.58 54.45 M142.38 276.44 C192.22 220.79, 239.11 160.15, 321.47 66.6 M142.49 273.73 C209.08 196.56, 279.71 117.89, 322.85 65.84 M160.03 274.53 C202.61 224.56, 250.79 173.62, 332.34 77.69 M160.23 277.61 C221.57 204.19, 283.12 132.49, 328.94 81.94 M180.1 283.78 C235.21 210.2, 298.62 142.04, 339.75 94.75 M177.47 278.97 C234.97 216.24, 289.66 154.66, 337.59 97.72 M199.55 278.24 C232.27 243.03, 264.59 205.28, 343.87 114.67 M200.24 277.63 C243.8 230.28, 287.15 184.23, 339.75 116.78 M231.4 273.27 C259.95 232.38, 292.68 191.87, 342.43 136.92 M228.85 269.58 C274.18 220.38, 316.47 171.11, 345.09 137.43 M268.35 255.12 C279.35 237.46, 295 213.71, 342.72 167.52 M265.5 255.11 C281.9 235.56, 296.05 218.52, 340.58 168.65" stroke="#a5d8ff" stroke-width="2" fill="none"></path><path d="M118.17 5.38 C133.75 -1.24, 154.69 -1.88, 171.95 -1.91 C189.22 -1.93, 204.97 0.6, 221.78 5.23 C238.6 9.87, 257.95 17.49, 272.84 25.91 C287.74 34.33, 301.08 44.27, 311.16 55.74 C321.24 67.2, 328.16 81.13, 333.35 94.69 C338.54 108.25, 341.74 122.93, 342.31 137.09 C342.88 151.26, 342.04 166.59, 336.78 179.69 C331.52 192.8, 321.1 204.5, 310.74 215.72 C300.37 226.94, 288.66 237.96, 274.6 247.01 C260.54 256.06, 243.39 265.22, 226.37 270.04 C209.36 274.86, 190.44 276.21, 172.52 275.92 C154.61 275.62, 135.74 272.43, 118.9 268.28 C102.06 264.12, 85.44 259.4, 71.5 251 C57.57 242.6, 46.04 229.7, 35.29 217.88 C24.55 206.06, 13.21 193.14, 7.05 180.09 C0.88 167.04, -1.93 153.53, -1.7 139.6 C-1.47 125.67, 2.83 110.06, 8.43 96.51 C14.02 82.96, 21.35 69.86, 31.86 58.29 C42.37 46.72, 46.15 37.1, 71.48 27.1 C96.81 17.1, 154.5 -0.21, 183.86 -1.7 C213.22 -3.18, 247.83 15.35, 247.64 18.19 M114.59 8.67 C129.09 2.23, 146.28 -0.29, 163.64 -0.4 C181.01 -0.52, 201.34 4.23, 218.8 7.97 C236.25 11.71, 254.09 14.28, 268.39 22.01 C282.7 29.75, 293.43 42.5, 304.62 54.4 C315.81 66.3, 328.65 79.95, 335.52 93.4 C342.4 106.86, 345.3 121.22, 345.88 135.13 C346.46 149.04, 344.09 163.82, 339.01 176.87 C333.93 189.93, 325.54 201.5, 315.39 213.48 C305.24 225.45, 292.48 239.68, 278.12 248.7 C263.77 257.72, 246.45 262.75, 229.26 267.59 C212.07 272.42, 192.91 277.42, 174.97 277.71 C157.03 278.01, 138.32 273.89, 121.62 269.37 C104.93 264.85, 89.19 257.97, 74.82 250.59 C60.45 243.22, 46.12 236.03, 35.41 225.11 C24.69 214.2, 16.8 198.81, 10.54 185.11 C4.28 171.41, -1.85 157.17, -2.15 142.93 C-2.46 128.69, 3.56 113.71, 8.7 99.69 C13.83 85.67, 19.26 70.32, 28.65 58.81 C38.03 47.3, 50.85 38.77, 65.02 30.62 C79.19 22.48, 105.64 13.46, 113.67 9.93 C121.71 6.41, 112.53 7.19, 113.25 9.47" stroke="#1971c2" stroke-width="4" fill="none"></path></g><g transform="translate(585.2510743499009 597.067987891134) rotate(0 60.54999923706055 17.5)"><text x="60.54999923706055" y="0" font-family="Virgil, Segoe UI Emoji" font-size="28px" fill="#1e1e1e" text-anchor="middle" style="white-space: pre;" direction="ltr" dominant-baseline="text-before-edge">인터프리터</text></g><g stroke-linecap="round"><g transform="translate(528.4573041540557 594.1378790738418) rotate(0 125.71198197411758 -40.98466342068702)"><path d="M-1.03 2.25 C19.38 -12.55, 79.17 -91.37, 121.42 -90.12 C163.66 -88.88, 230.58 -7.36, 252.46 9.73 M3.6 1 C23.97 -14.45, 79.35 -95.83, 120.61 -93.99 C161.86 -92.15, 228.93 -4.79, 251.15 12.05" stroke="#1e1e1e" stroke-width="4" fill="none"></path></g><g transform="translate(528.4573041540557 594.1378790738418) rotate(0 125.71198197411758 -40.98466342068702)"><path d="M227.13 3.23 C233.96 4.28, 236.03 7.93, 252.9 14.09 M222.95 0.06 C229.94 1.26, 236.94 6.31, 251 12.62" stroke="#1e1e1e" stroke-width="4" fill="none"></path></g><g transform="translate(528.4573041540557 594.1378790738418) rotate(0 125.71198197411758 -40.98466342068702)"><path d="M241.59 -11.33 C244.49 -6.56, 242.76 0.91, 252.9 14.09 M237.41 -14.51 C241.52 -10.1, 245.5 -2.01, 251 12.62" stroke="#1e1e1e" stroke-width="4" fill="none"></path></g></g><mask></mask><g stroke-linecap="round"><g transform="translate(775.807554383888 630.471814135851) rotate(0 -119.7023518164574 44.34136101997983)"><path d="M2.57 -1.78 C-16.74 12.43, -76.54 84.38, -117.17 86.76 C-157.81 89.14, -219.78 25.34, -241.22 12.53 M0.52 3.43 C-17.84 17.99, -71.76 89.61, -112.18 90.45 C-152.59 91.3, -219.56 21.47, -241.98 8.49" stroke="#1e1e1e" stroke-width="4" fill="none"></path></g><g transform="translate(775.807554383888 630.471814135851) rotate(0 -119.7023518164574 44.34136101997983)"><path d="M-215.97 14.03 C-220.59 18.67, -224.06 9.76, -241.86 11.27 M-214.85 17.18 C-223.69 14.42, -232.26 9.24, -241.22 10.06" stroke="#1e1e1e" stroke-width="4" fill="none"></path></g><g transform="translate(775.807554383888 630.471814135851) rotate(0 -119.7023518164574 44.34136101997983)"><path d="M-228.58 30.21 C-230.18 30.53, -230.46 17.52, -241.86 11.27 M-227.46 33.37 C-231.8 25.43, -236.18 14.86, -241.22 10.06" stroke="#1e1e1e" stroke-width="4" fill="none"></path></g></g><mask></mask><g stroke-linecap="round"><g transform="translate(187.4772981875069 342.5952517214697) rotate(0 139.91112286758073 122.1783155596986)"><path d="M0.42 -2.07 C46.76 39.33, 232.84 204.51, 279.4 246.43" stroke="#1971c2" stroke-width="4.5" fill="none" stroke-dasharray="8 12"></path></g><g transform="translate(187.4772981875069 342.5952517214697) rotate(0 139.91112286758073 122.1783155596986)"><path d="M248.58 233.18 C259.79 237.53, 273.85 239.06, 278.08 247.56" stroke="#1971c2" stroke-width="4.5" fill="none"></path></g><g transform="translate(187.4772981875069 342.5952517214697) rotate(0 139.91112286758073 122.1783155596986)"><path d="M262.25 217.87 C268.47 227.61, 277.76 234.48, 278.08 247.56" stroke="#1971c2" stroke-width="4.5" fill="none"></path></g></g><mask></mask><g stroke-linecap="round"><g transform="translate(1090.2358385743532 353.7749240482418) rotate(0 -133.14873262908964 114.17480042831188)"><path d="M-0.01 0.71 C-44.01 38.88, -221.84 189.89, -266.28 227.64" stroke="#e03131" stroke-width="4.5" fill="none" stroke-dasharray="8 12"></path></g><g transform="translate(1090.2358385743532 353.7749240482418) rotate(0 -133.14873262908964 114.17480042831188)"><path d="M-250.42 204.46 C-255.15 209.62, -259.05 213.05, -269.09 228.86" stroke="#e03131" stroke-width="4.5" fill="none"></path></g><g transform="translate(1090.2358385743532 353.7749240482418) rotate(0 -133.14873262908964 114.17480042831188)"><path d="M-237.14 220.1 C-244.61 221.85, -251.41 221.86, -269.09 228.86" stroke="#e03131" stroke-width="4.5" fill="none"></path></g></g><mask></mask></svg>