<svg version="1.1" xmlns="http://www.w3.org/2000/svg" viewBox="0 0 3326.9813505936218 2615.125811400492" width="6653.9627011872435" height="5230.251622800984">
  <!-- svg-source:excalidraw -->
  
  <defs>
    <style class="style-fonts">
      @font-face {
        font-family: "Virgil";
        src: url("https://excalidraw.com/Virgil.woff2");
      }
      @font-face {
        font-family: "Cascadia";
        src: url("https://excalidraw.com/Cascadia.woff2");
      }
    </style>
    
  </defs>
  <rect x="0" y="0" width="3326.9813505936218" height="2615.125811400492" fill="#ffffff"></rect><g stroke-linecap="round" transform="translate(10 213.7581897985898) rotate(0 150.80696712804797 1195.683810800951)"><path d="M32 0 M32 0 C115.14 -2.25, 196.26 0.29, 269.61 0 M32 0 C83.1 -0.18, 135.66 0.55, 269.61 0 M269.61 0 C290.46 0.62, 303.2 11.5, 301.61 32 M269.61 0 C288.93 0.79, 301.11 12.52, 301.61 32 M301.61 32 C305.38 734.51, 305.69 1436.41, 301.61 2359.37 M301.61 32 C307.86 813.44, 307.38 1594.11, 301.61 2359.37 M301.61 2359.37 C302.22 2381.96, 290.58 2393.29, 269.61 2391.37 M301.61 2359.37 C302.98 2380.26, 291.52 2391.35, 269.61 2391.37 M269.61 2391.37 C192.77 2391.9, 117.69 2394.06, 32 2391.37 M269.61 2391.37 C200.6 2392.06, 132.15 2390.88, 32 2391.37 M32 2391.37 C9.95 2391.26, -1.9 2381.14, 0 2359.37 M32 2391.37 C9.27 2390.38, 1.67 2378.55, 0 2359.37 M0 2359.37 C-2.69 1528.41, -2.81 697.35, 0 32 M0 2359.37 C-1.99 1640.76, -2.09 921.67, 0 32 M0 32 C-0.33 11.98, 11.26 0.1, 32 0 M0 32 C-0.75 11.41, 11.46 2.1, 32 0" stroke="#1e1e1e" stroke-width="2" fill="none"></path></g><g stroke-linecap="round" transform="translate(602.4559422887596 202.98626357515775) rotate(0 1357.262704152431 1187.604866133377)"><path d="M32 0 M32 0 C975.69 -6.93, 1918.65 -6.71, 2682.53 0 M32 0 C918.16 2.06, 1804.43 2.13, 2682.53 0 M2682.53 0 C2704.07 0.71, 2715.4 11.15, 2714.53 32 M2682.53 0 C2702.04 -1.45, 2715.71 11.1, 2714.53 32 M2714.53 32 C2717.5 764.07, 2718.39 1498.14, 2714.53 2343.21 M2714.53 32 C2709.87 786.47, 2709.68 1541.14, 2714.53 2343.21 M2714.53 2343.21 C2713.18 2364.13, 2703.72 2375.23, 2682.53 2375.21 M2714.53 2343.21 C2714.43 2364.36, 2704.43 2374.13, 2682.53 2375.21 M2682.53 2375.21 C1960.37 2379.94, 1240.31 2380.21, 32 2375.21 M2682.53 2375.21 C2067.91 2374.8, 1453.93 2374.54, 32 2375.21 M32 2375.21 C9.23 2373.75, -1.05 2363.34, 0 2343.21 M32 2375.21 C12.55 2376.03, -2.25 2363.62, 0 2343.21 M0 2343.21 C8.66 1594.57, 8.65 846.98, 0 32 M0 2343.21 C2.16 1740.48, 2.35 1137.5, 0 32 M0 32 C0.15 9.79, 11.16 -0.17, 32 0 M0 32 C-1.32 9.62, 11.36 -1.75, 32 0" stroke="#1e1e1e" stroke-width="2" fill="none"></path></g><g stroke-linecap="round" transform="translate(1119.508401013495 536.9159765015496) rotate(0 207.35957980106605 191.20169046591786)"><path d="M51.75 66.19 C51.75 66.19, 51.75 66.19, 51.75 66.19 M51.75 66.19 C51.75 66.19, 51.75 66.19, 51.75 66.19 M22.37 112.27 C47.73 84.87, 73.09 56.02, 91.97 33.82 M23.89 111.37 C41.75 88.37, 61.86 65.66, 90.82 34.13 M16.91 131.57 C37.1 107.75, 58.36 83.28, 98.47 34.75 M15.08 131.65 C48.22 93.04, 80.58 55.18, 99.47 36.59 M0.66 159.9 C45.85 105.93, 89.57 57.54, 114.83 29.04 M2.71 159.04 C40.66 115.82, 78.35 73.21, 115.48 29.39 M4.33 172.62 C40.9 130.11, 76.35 87.41, 133.47 21.63 M1.62 172.04 C53.73 112.08, 103.91 53.47, 131.36 21.36 M0.33 184.62 C38.54 140.87, 75.64 98.4, 149.12 13.51 M1.17 184.85 C49.84 128.66, 100.54 72.61, 150.52 13.68 M0.41 196.36 C38.48 156, 73.53 115.07, 162.39 11.96 M2.13 196.68 C57.45 133.27, 112.77 70.66, 162.83 11.48 M2.66 209.76 C55.02 147.02, 108.69 88.08, 174.47 7.83 M1.3 208.89 C59.64 142.7, 116.5 77.9, 175.95 9.14 M4.82 216.99 C66.56 147.34, 129.48 78.49, 188.56 7.06 M5.49 215.87 C68.9 145.15, 130.67 74.52, 187.28 7.72 M9.34 226.42 C50.74 178.59, 94.48 129.09, 202.09 1.83 M9.05 225.48 C87.46 136.84, 164.51 47.86, 202.89 1.7 M11.08 234.17 C81.13 153.62, 149.65 75.73, 212.77 1.18 M10.81 234.69 C79.52 154.69, 148.14 75.06, 213.07 2.12 M14.09 244.85 C73.39 176.1, 135.65 105.67, 223.72 3.34 M14.3 243.98 C68.26 183.16, 122.14 121.35, 222.84 4.14 M14.6 253.9 C66.66 196.46, 119.67 136.03, 231.84 4.74 M16.02 253.31 C88.64 170.13, 160 88.12, 232.88 4.29 M16.76 265.42 C82.19 191.51, 146.26 119.18, 242.78 7.36 M17.68 263.66 C77.97 194.73, 138.04 125.71, 241.44 5.57 M21.93 271.81 C81.31 202.73, 141.17 135.43, 251.79 6.81 M21.66 271.31 C100.02 182.44, 178.52 91.59, 251.87 7.37 M25.83 277.82 C75.56 220.57, 127.93 160.43, 260.16 9.08 M25.58 277.89 C80.13 216.8, 134.67 153.24, 259.88 8.7 M31.78 284.74 C100.6 206.18, 168.92 127.05, 268.81 11.94 M31.26 285.88 C92.07 215.05, 153.5 145.59, 269.05 11.36 M36.43 293 C125.55 190.01, 212.26 89.96, 276.28 13.37 M36.02 291.76 C87.52 235.85, 136.84 177.62, 277.54 14.48 M39.81 299.79 C113.62 216.32, 186.58 133.14, 284.95 17.18 M39.58 299.2 C135.7 187.59, 233.14 76.58, 285.04 17.47 M44.48 306.88 C108.97 232.42, 171.31 159.93, 292.11 19.91 M43.7 306.45 C114.97 224.99, 185.02 144.76, 293.04 19.99 M48.72 312.64 C121.85 229.32, 192.23 146.29, 300.88 22.06 M49.54 312.79 C129.19 221.66, 209.15 129.56, 301.44 23.8 M55.55 318.56 C124.76 238.07, 195.21 158.46, 309.18 26.59 M55.23 318.31 C155.48 204.6, 253.77 90.57, 309.17 25.07 M60.22 323.72 C140.85 232.39, 220.07 140.49, 315.88 28.95 M61.71 323.87 C122.49 252.47, 183.36 181.29, 315.88 29.86 M68.41 328.79 C136.34 251.72, 202.82 171.92, 324.28 33.45 M67.86 328.63 C148.55 235.8, 229.28 142.57, 323.66 34.57 M72.82 335.6 C151 243.57, 230.58 152.47, 329.07 39.21 M72.21 335.05 C126.6 272.5, 181.46 209.46, 330.35 38.51 M78.95 339.87 C162.11 244.21, 247.45 146.84, 337.32 44.54 M78.19 339.85 C152.1 253.42, 225.62 168.02, 337.09 42.97 M85.26 344.56 C148.6 270.98, 212.16 199.7, 343.35 48.82 M85.3 345.74 C167.92 247.96, 252.83 149.66, 343.44 47.93 M91.55 348.68 C148.28 286.19, 203.73 221.65, 350.08 52.05 M91.07 349.71 C186.74 239.02, 282.01 129.3, 349.48 52.3 M99.75 353.76 C191.37 246.94, 284.92 141.42, 355.53 56.71 M99.24 353.67 C185.4 256.98, 270.93 158.84, 356.76 56.46 M105.1 356.5 C193.5 257.58, 279.21 156.74, 360.54 62.68 M105.71 357.7 C173.11 276.61, 243.08 197.46, 361.49 63.59 M114.1 360.73 C199.15 262.57, 285.69 166.86, 366.59 70.85 M113.48 361.03 C164.11 301.74, 216.15 241.89, 366.65 70 M121.05 363.73 C213.51 257.79, 308.33 148.54, 372.85 75.39 M121.37 364.25 C209.66 263.34, 298.59 161.83, 371.6 75.54 M126.5 368.3 C208.31 276.58, 290.29 185.19, 377.67 82.99 M127.78 369.08 C220.82 260.67, 314.55 153.54, 376.31 82.46 M135.71 372.22 C193.9 305.77, 251.07 240.21, 383.3 88.99 M135.43 373.24 C187.45 312.53, 238.83 253.7, 381.95 88.61 M144.51 375.54 C222.64 283.32, 299.74 194.12, 387.01 96.39 M143.85 374.81 C218.12 287.06, 294.22 200.21, 387.23 95.31 M152.74 376.81 C226.23 293.17, 298.6 207.74, 391.59 102.17 M152.52 377.64 C219.85 298.65, 289.37 218.58, 392.18 101.58 M161.52 377.86 C252.68 272.94, 345.12 166.78, 396.97 109.23 M161.03 378.5 C241.32 289.05, 319.55 198.9, 396.33 109.42 M169.74 380.6 C220.02 322.82, 270.65 262.65, 398.99 118.77 M169.83 381.78 C232.92 309.7, 296.46 236.87, 399.51 118.01 M178.48 384.42 C234.08 320.76, 289.39 256.75, 403.68 127.14 M178.96 383.8 C224.88 332.52, 268.92 280.76, 402.61 126.43 M187.53 384.43 C247.71 313.89, 308.28 243.29, 406.59 133.12 M188.89 383.44 C255.26 308.67, 321.06 232.78, 405.49 134.13 M198.58 384.73 C252.9 323.38, 309.48 260.28, 408.79 143.28 M199.05 384.45 C265.33 307.79, 329.95 232.51, 409.43 142.62 M210.35 384.21 C256.79 331.31, 300.89 279.22, 413.05 148.72 M210.25 382.97 C280.03 301.91, 350.67 221.82, 413.38 149.51 M223.19 382.82 C269.05 324.88, 320.17 267.85, 414.08 160.31 M221.78 383.14 C282.33 313.44, 343.97 242.81, 414.6 161.03 M231.51 383.3 C279.33 326.22, 327.82 271.44, 416.78 172.36 M233.11 382.49 C272.25 335.92, 311.04 291.87, 416.35 171.68 M244.31 382.52 C297.89 318.81, 352.12 255.74, 415.91 182.85 M244.06 381.52 C295.76 320.24, 348.76 259.52, 417.09 183.03 M257.87 377.51 C299.13 331.97, 337.14 288.13, 416.12 196.15 M258.44 377.46 C315.61 308.08, 374.81 241.31, 414 198.06 M273.18 374.2 C327.38 314.11, 381.79 250.89, 411.64 213.32 M273 373.32 C301.06 340.53, 329.38 308.09, 412.32 213.09 M284.84 370.68 C322.07 327.16, 361.54 282.04, 409.28 229.67 M286.22 368.55 C328.09 322.48, 369.82 273.57, 409.64 228.3 M300 366.75 C324.13 334.89, 351.75 305.82, 405.14 243.62 M298.49 367.79 C340.99 318.7, 383.19 269.77, 406.83 243.33 M320.08 350.86 C342.56 329.63, 360.36 311.28, 410.26 253.43 M321.68 353.58 C344.07 327.72, 366.76 302.69, 407.86 252.96" stroke="#1e1e1e" stroke-width="1" fill="none"></path><path d="M144.82 9.81 C160.81 1.75, 181.93 0.4, 200.62 -0.34 C219.31 -1.07, 238.95 1.32, 256.96 5.41 C274.96 9.5, 292.39 15.87, 308.64 24.2 C324.9 32.54, 341.14 43.18, 354.47 55.41 C367.8 67.64, 379.69 82.57, 388.63 97.58 C397.56 112.6, 403.87 128.88, 408.08 145.49 C412.29 162.1, 414.49 179.92, 413.87 197.25 C413.25 214.57, 409.95 232.93, 404.37 249.43 C398.8 265.94, 390.76 282.05, 380.44 296.27 C370.12 310.49, 356.64 323.5, 342.47 334.77 C328.3 346.04, 312.21 356.41, 295.41 363.87 C278.61 371.33, 259.91 376.55, 241.67 379.52 C223.43 382.5, 204.55 383.4, 185.98 381.73 C167.41 380.06, 147.52 375.83, 130.24 369.5 C112.97 363.17, 96.88 354.32, 82.32 343.74 C67.76 333.17, 54.23 319.77, 42.87 306.06 C31.52 292.35, 21.16 277.3, 14.21 261.49 C7.27 245.67, 3.2 228.26, 1.21 211.18 C-0.79 194.1, -0.94 176.17, 2.24 159 C5.43 141.84, 12 123.71, 20.3 108.18 C28.6 92.65, 39.92 78.59, 52.07 65.83 C64.21 53.06, 76.34 41.53, 93.17 31.6 C110 21.66, 141.76 9.95, 153.05 6.22 C164.35 2.48, 160.17 5.99, 160.94 9.17 M123.83 16.93 C138.54 7.28, 157.14 5.15, 175.28 2.35 C193.41 -0.44, 213.82 -1.74, 232.67 0.16 C251.52 2.06, 271.12 6.89, 288.37 13.74 C305.62 20.6, 321.58 30.16, 336.16 41.29 C350.74 52.42, 364.73 66.64, 375.84 80.51 C386.95 94.38, 396.69 108.65, 402.82 124.5 C408.96 140.36, 411.21 158.64, 412.64 175.62 C414.07 192.61, 414.65 209.59, 411.43 226.44 C408.2 243.28, 401.93 261.05, 393.29 276.69 C384.65 292.33, 372.28 307.53, 359.59 320.28 C346.91 333.03, 333.03 344, 317.19 353.2 C301.34 362.4, 282.27 370.84, 264.53 375.48 C246.8 380.13, 229.4 381.22, 210.78 381.07 C192.15 380.92, 170.72 378.91, 152.79 374.58 C134.85 370.26, 118.92 363.58, 103.15 355.12 C87.39 346.66, 71.55 335.92, 58.19 323.83 C44.82 311.73, 32.1 297.8, 22.96 282.55 C13.83 267.29, 6.99 249.26, 3.36 232.28 C-0.26 215.29, -0.3 197.97, 1.24 180.65 C2.77 163.33, 6.48 144.7, 12.58 128.35 C18.68 111.99, 27.56 96.71, 37.84 82.5 C48.12 68.29, 60.01 54.12, 74.28 43.1 C88.54 32.09, 114.95 20.34, 123.42 16.42 C131.9 12.51, 123.79 16.8, 125.11 19.63" stroke="#1e1e1e" stroke-width="2" fill="none"></path></g><g stroke-linecap="round" transform="translate(58.565802333923784 253.37495453624922) rotate(0 107.05639364262242 169.50595660081882)"><path d="M7.86 8.16 C7.86 8.16, 7.86 8.16, 7.86 8.16 M7.86 8.16 C7.86 8.16, 7.86 8.16, 7.86 8.16 M2.75 26.24 C8.62 18.96, 14.96 11.02, 21.12 5.11 M2.75 26.24 C9.05 19.53, 14.89 13.41, 21.12 5.11 M2.88 38.28 C10.23 30.52, 18.4 20.64, 34.37 2.05 M2.88 38.28 C15.65 24.05, 28.25 10.04, 34.37 2.05 M2.36 51.07 C16.83 35.35, 32.71 17.53, 45 2.02 M2.36 51.07 C16.61 34.36, 31.56 18.49, 45 2.02 M2.49 63.11 C20.38 42.84, 37.34 24.8, 55.63 1.98 M2.49 63.11 C20.61 42.15, 39.13 21.32, 55.63 1.98 M2.62 75.16 C19.6 53.14, 39.45 36.48, 66.26 1.95 M2.62 75.16 C26.2 48.71, 48.35 22.59, 66.26 1.95 M2.76 87.2 C32.89 54.12, 58.54 20.76, 76.89 1.91 M2.76 87.2 C24.36 64.45, 43.35 42.24, 76.89 1.91 M2.23 99.99 C18.83 78.35, 37.3 58, 87.52 1.88 M2.23 99.99 C27.99 69.71, 52.86 41.82, 87.52 1.88 M2.37 112.03 C33.78 74.2, 68.99 35.78, 97.49 2.6 M2.37 112.03 C38.97 69.19, 77.57 24.96, 97.49 2.6 M2.5 124.07 C23.09 98.66, 48.53 76.25, 108.12 2.57 M2.5 124.07 C24.48 98.85, 46.48 72.34, 108.12 2.57 M2.63 136.11 C32.92 97.39, 66.83 60.56, 118.76 2.53 M2.63 136.11 C35.59 96.45, 68.16 57.41, 118.76 2.53 M2.11 148.91 C38.21 109.33, 72.15 69.55, 129.39 2.5 M2.11 148.91 C36.18 108.13, 72.38 67.52, 129.39 2.5 M2.24 160.95 C31.91 128.66, 58.72 95.82, 140.02 2.46 M2.24 160.95 C40.42 116.75, 76.94 73.77, 140.02 2.46 M2.38 172.99 C57.86 110.59, 111.95 49.16, 150.65 2.43 M2.38 172.99 C38.19 132.96, 75.64 90.61, 150.65 2.43 M2.51 185.03 C54.65 126.06, 107.8 64.32, 161.28 2.39 M2.51 185.03 C65.43 111.94, 128.51 38.42, 161.28 2.39 M2.64 197.07 C37.24 157.21, 72.91 116.37, 171.91 2.36 M2.64 197.07 C68.91 121.05, 135.81 45.43, 171.91 2.36 M2.12 209.87 C70.9 127.15, 144.84 44.37, 182.54 2.32 M2.12 209.87 C51.86 152.61, 101.04 95.68, 182.54 2.32 M2.25 221.91 C51.49 165.73, 101.23 106.74, 192.51 3.04 M2.25 221.91 C67.32 148.32, 129.91 75.28, 192.51 3.04 M2.39 233.95 C59.81 165.57, 119.81 97.1, 201.83 4.52 M2.39 233.95 C51.34 178.95, 99.53 122.46, 201.83 4.52 M2.52 245.99 C78.86 159.42, 153.87 72.19, 207.21 10.52 M2.52 245.99 C56.67 186.73, 108.48 125.91, 207.21 10.52 M2 258.79 C66.26 184.97, 128.39 112.6, 213.25 15.77 M2 258.79 C44.34 211.42, 85.89 161.83, 213.25 15.77 M2.13 270.83 C69.03 196.17, 133.29 119.41, 217.97 22.53 M2.13 270.83 C59.65 205.82, 115.76 140.93, 217.97 22.53 M2.26 282.87 C48.34 229.63, 93.12 179.54, 217.45 35.32 M2.26 282.87 C81.09 190.56, 162.81 96.6, 217.45 35.32 M2.4 294.91 C50.38 239.06, 98.3 183.44, 217.58 47.37 M2.4 294.91 C47.37 243.12, 91.37 192.31, 217.58 47.37 M1.22 308.46 C45.41 258.72, 87.35 207.03, 217.72 59.41 M1.22 308.46 C76.99 220.23, 153.02 133.55, 217.72 59.41 M2.66 318.99 C48.63 264.35, 94.87 211.74, 217.85 71.45 M2.66 318.99 C66.89 245.54, 130.98 172.44, 217.85 71.45 M6.08 327.26 C52.01 277.32, 93.67 226.13, 217.98 83.49 M6.08 327.26 C57.78 269.32, 108.78 209.62, 217.98 83.49 M11.46 333.26 C83.02 251.71, 153.43 169.38, 217.46 96.28 M11.46 333.26 C65.44 267.93, 120.94 205.44, 217.46 96.28 M18.15 337.76 C75.97 269.16, 137.47 201.57, 217.59 108.32 M18.15 337.76 C82.98 264.99, 145.74 191.16, 217.59 108.32 M28.12 338.48 C68.28 292.92, 109.3 245.82, 217.73 120.37 M28.12 338.48 C66.91 291.63, 106.91 245.99, 217.73 120.37 M35.47 342.22 C94.22 275.61, 152.26 206.6, 217.86 132.41 M35.47 342.22 C106.87 258.09, 178.37 176.39, 217.86 132.41 M46.1 342.18 C111.36 265.8, 175.11 191.38, 217.34 145.2 M46.1 342.18 C106.77 270.99, 168.26 200.5, 217.34 145.2 M56.73 342.15 C102.14 292.73, 142.85 242.57, 217.47 157.24 M56.73 342.15 C90.44 303.32, 124.73 264.2, 217.47 157.24 M67.36 342.11 C128.88 274.51, 186.53 205.23, 217.6 169.28 M67.36 342.11 C111.5 292.59, 153.12 245.15, 217.6 169.28 M77.99 342.08 C120.06 294.99, 162.51 245.24, 217.74 181.32 M77.99 342.08 C117.01 296.76, 155.53 252.75, 217.74 181.32 M88.62 342.04 C131.44 293.87, 169.03 248.19, 217.87 193.37 M88.62 342.04 C125.67 297.39, 164.63 251.69, 217.87 193.37 M99.25 342.01 C134.09 300.67, 173.08 257.31, 217.35 206.16 M99.25 342.01 C125.15 311.09, 153.15 281.33, 217.35 206.16 M109.88 341.97 C150.83 294.22, 189.39 245.22, 217.48 218.2 M109.88 341.97 C140.88 308.61, 171.15 273.02, 217.48 218.2 M120.51 341.94 C159.82 298.95, 194.91 258.91, 217.61 230.24 M120.51 341.94 C143.89 314.25, 166.79 287.29, 217.61 230.24 M131.15 341.9 C165 301.44, 198.44 265.89, 217.74 242.28 M131.15 341.9 C151.21 319.18, 171.63 296.28, 217.74 242.28 M141.78 341.87 C166.36 314.5, 190.25 288.99, 217.88 254.32 M141.78 341.87 C161.14 319.93, 180.74 296.96, 217.88 254.32 M152.41 341.84 C172.72 320.83, 191 300.46, 217.36 267.12 M152.41 341.84 C169.63 319.41, 190.18 298.4, 217.36 267.12 M163.04 341.8 C177.41 321.86, 194.57 304.65, 217.49 279.16 M163.04 341.8 C181.37 320, 201.89 298.74, 217.49 279.16 M173.67 341.77 C190.19 324.34, 208.23 301.8, 217.62 291.2 M173.67 341.77 C190 324.04, 204.44 305.56, 217.62 291.2 M184.95 340.98 C193.02 332.2, 200.13 322.71, 214.47 307.02 M184.95 340.98 C194.26 331.01, 202.97 319.34, 214.47 307.02 M197.55 338.68 C200.92 331.45, 206.89 328.53, 212.64 321.32 M197.55 338.68 C201.92 333.56, 204.94 329.82, 212.64 321.32" stroke="#1e1e1e" stroke-width="1" fill="none"></path><path d="M32 0 M32 0 C75.2 -0.83, 115.26 1.87, 182.11 0 M32 0 C81.82 -0.12, 130.14 -1.37, 182.11 0 M182.11 0 C204.28 0.49, 212.49 8.9, 214.11 32 M182.11 0 C201.96 1.05, 213.09 8.66, 214.11 32 M214.11 32 C212.21 93.03, 213.48 150.1, 214.11 307.01 M214.11 32 C213.13 134.77, 212.67 238.05, 214.11 307.01 M214.11 307.01 C214.82 326.39, 202.99 340.06, 182.11 339.01 M214.11 307.01 C213.59 326.58, 201.29 340.46, 182.11 339.01 M182.11 339.01 C124.55 341.1, 70.98 340.49, 32 339.01 M182.11 339.01 C136.33 338.88, 90.31 339.99, 32 339.01 M32 339.01 C12.15 339.66, -0.05 328.72, 0 307.01 M32 339.01 C8.72 337.57, 2.17 328.55, 0 307.01 M0 307.01 C-0.55 224.22, -1.98 144.52, 0 32 M0 307.01 C1.7 246.7, 0.63 187.43, 0 32 M0 32 C0.45 9.12, 9.99 -1.71, 32 0 M0 32 C-1.78 8.91, 9.31 1.33, 32 0" stroke="#1e1e1e" stroke-width="2" fill="none"></path></g><g stroke-linecap="round" transform="translate(1133.0798130803375 1462.916328655042) rotate(0 207.35957980106605 191.20169046591786)"><path d="M35.97 84.27 C35.97 84.27, 35.97 84.27, 35.97 84.27 M35.97 84.27 C35.97 84.27, 35.97 84.27, 35.97 84.27 M16.77 118.05 C30.87 102.22, 43.54 88.29, 78.54 47.29 M18.02 119.02 C36.59 94.97, 55.58 74.23, 76.98 48.51 M15.59 133.26 C41.05 102.35, 65.73 74.26, 98.17 38.42 M14.31 133.14 C41.06 103.84, 64.34 75.67, 98.53 37.53 M11.84 147.7 C39.95 115.73, 69.39 82.17, 124.92 18.15 M12.05 149.86 C46.43 109.31, 81.19 67.15, 122.95 19.22 M8.14 164.07 C54.29 111.93, 102.94 55.87, 137.24 14.68 M9.31 164.94 C33.73 134.71, 60.34 105.8, 136.59 17.07 M1.87 183.25 C48.56 132.53, 94.04 78.54, 150.53 11.58 M2.32 183.93 C39.19 141.12, 76.52 97.32, 150.16 13.5 M3.74 193.66 C59.59 131.02, 114.11 67.71, 163.19 9.72 M3.36 194.92 C48.04 142.14, 94.67 89.72, 164.98 8.65 M6.22 205 C43.8 160.77, 84.07 113.86, 178.63 6.01 M5.24 205.5 C52.3 152.61, 99.51 98.22, 178.42 5.95 M6.81 217.26 C43.97 172.02, 80.78 130.23, 187.82 6.52 M5.87 216.31 C74.06 139.34, 141.35 61.66, 188.46 6.01 M6.03 227.59 C74.46 149.49, 141.71 72.15, 198.54 6.02 M6.93 226.67 C76.4 146.04, 145.14 65.29, 199.2 4.99 M10.4 235.99 C81.6 153.13, 155.79 68.67, 209.83 5.33 M10.04 236.58 C71.86 164.9, 132.93 94.56, 210.6 6.01 M13.33 246.58 C72.49 179.35, 130.02 112, 219.76 5.93 M11.82 244.88 C86.88 158.83, 161.73 73.45, 220.54 5.99 M14.74 254.18 C78.42 182.42, 140.84 111.08, 233.15 5.11 M16.13 253.67 C60 200.7, 104.72 149.19, 233.33 3.4 M20.33 261.78 C74.85 198.21, 131.3 132.56, 241.44 6.14 M19.21 262.29 C92.29 177.71, 166.14 94.35, 241.54 5.78 M22.38 269.14 C92 187.9, 160.41 109.67, 251.53 6.44 M22.62 269.72 C71.03 213.97, 118.92 158.1, 251.24 7.9 M26 279.26 C112.49 174.54, 202.14 73.05, 258.95 9.97 M26 278.84 C117.85 172.34, 210.88 64.89, 259.85 9.44 M28.93 286.33 C125.35 177.19, 221 66.51, 268.65 10.94 M29.04 286.29 C103.01 201.18, 178.41 114.82, 268.45 12.05 M35.59 293.44 C87.67 232.23, 141.2 169.39, 278.11 13.5 M35.51 293.24 C113.63 203.51, 192.09 113.11, 278.16 14.08 M39.86 299.41 C92.6 238.84, 144.15 176.69, 286.76 15.01 M39.16 299.33 C126.66 201.57, 211.99 103.46, 287.44 14.99 M45.73 304.75 C142.11 192.97, 242.08 77.41, 293.77 18.15 M44.93 305.57 C123.68 216.13, 201.24 127.46, 294.32 19.24 M49.6 312.95 C108.94 242.15, 169.44 174.89, 301.36 21.85 M49.27 312.65 C146.13 200.8, 242.9 90.2, 301.38 21.88 M55.62 319.29 C151.51 206.98, 246.32 96.43, 308.69 25.98 M54.9 317.74 C109.35 255.56, 162.9 194.17, 308.95 27.25 M58.94 326.02 C116.45 259.39, 175.07 192.4, 314.61 30.41 M59.34 325.38 C150.8 222.44, 241.07 118.28, 315.93 30.72 M66.93 329.58 C142.61 242.12, 220.7 154.77, 323.48 34.39 M67.13 329.56 C149.8 236.73, 231.45 142.59, 322.79 34.18 M71.66 335.36 C174.05 218.59, 275.59 103.74, 329.56 37.76 M72.28 335.09 C129.37 272.74, 184.71 209.21, 330.33 38.46 M78.21 339.8 C166.94 237.45, 256.12 136.27, 337.09 42.06 M78.86 339.07 C175.81 229.39, 271.04 118.84, 337.06 42.78 M85.18 343.63 C186.75 226.33, 286.94 111.25, 342.83 49.26 M85.57 343.7 C182.88 230.39, 280.76 118.46, 343.1 48.83 M91.82 349.26 C184.22 245.71, 273.23 141.76, 348.33 53.75 M92.15 348.43 C180.78 247.22, 269.58 146.13, 349.12 53.33 M98.06 353.37 C187.26 249.92, 279.09 147.59, 355.18 59.48 M98.83 353.77 C176.86 265.57, 253.67 176.84, 354.34 58.97 M105.68 358 C164.55 292.29, 220.88 224.47, 361.73 64.19 M105.59 357.81 C173.67 279.52, 242.46 201.31, 360.77 63.82 M113.34 360.93 C174.32 290.11, 237.47 216.78, 367.53 68.99 M113.64 361.29 C181.37 280.84, 250.9 200.2, 366.49 69.33 M121.82 362.83 C200.56 271.44, 280.44 179.43, 373.12 76.4 M121.69 363.76 C172.43 305.3, 223.51 245.8, 371.83 75.44 M128.92 367.09 C207.47 276.99, 285.59 188.32, 378.35 79.75 M129.76 367.45 C188.01 299.4, 247.35 231.62, 378.19 81.36 M138.19 368.9 C197.22 300.51, 255.66 231, 381.72 88.55 M137.55 369.55 C203.29 292.51, 269.6 215.95, 381.97 88.93 M144.9 374.1 C201.31 309.3, 257.71 244.16, 387.01 96.79 M145.47 373.22 C236.2 268.67, 327.57 164.06, 386.42 95.45 M153.49 376.78 C214.71 302.52, 279.89 229.33, 390.41 103.54 M153.19 375.71 C205.79 316.06, 259.99 253.35, 390.68 103.27 M159.58 379.91 C245.35 284.38, 328.87 186.19, 395.15 110.95 M160.59 379.84 C235.76 293.03, 311.62 205.97, 395.04 110.8 M170.04 381.89 C241.43 298.55, 315.94 214.84, 398.47 116.76 M169.66 381.08 C229.66 311.79, 289.27 242.65, 399.69 118.16 M178.95 382.33 C245.11 307.2, 310.28 234.19, 401.41 125.25 M180.08 383.08 C255.26 294.05, 332.04 205.07, 402.35 126.23 M189.61 383.77 C268.34 293.59, 346.85 201.7, 405.69 134.96 M189.78 383.21 C236.97 328.57, 286.02 272.86, 404.6 135.3 M199.21 384.5 C260.17 316.18, 321.3 244.99, 408.57 145.62 M198.59 384.64 C273.58 300.15, 346.68 216.1, 407.75 145.1 M209.34 386.22 C260.07 327.62, 309.56 265.39, 408.11 153.41 M207.38 385.98 C251.28 339.3, 291.75 291.21, 409.16 154.93 M218.95 387.61 C269.72 326.78, 319.92 269.51, 413.08 163.4 M218.61 386.4 C277.44 316.4, 339.31 246.47, 412.2 164 M231.32 385.62 C283.24 325.78, 336.06 266.48, 414.44 173 M229.37 385.3 C290.78 314.89, 350.29 246.24, 412.93 174.35 M241.75 382.42 C306.74 306.43, 376.58 228.8, 413.48 186.47 M241.93 384.15 C280.73 339.61, 319.83 296.55, 413.27 187.31 M253.2 381.53 C315.16 311.59, 376.49 241.35, 412.14 201.1 M254.42 381.24 C311.9 315.51, 369.8 248.84, 412.89 199.1 M269.72 375.79 C310.44 327.12, 353.58 278.94, 412.19 210.98 M269.9 377.05 C316.12 321.75, 364.19 268.39, 411.95 212.96 M285.16 367.9 C333.44 315.69, 380.2 259.93, 410.96 224.62 M286.82 369.79 C330.26 319.14, 373.86 268.9, 411.47 225.64 M301.83 363.61 C331.81 328.45, 361.42 292.12, 419.32 229.83 M303.99 361.01 C339.89 319.75, 377.87 276.63, 417.87 229.85 M319.83 354.72 C350.12 320.28, 379.73 290.43, 410.38 251.04 M319.86 354.34 C350.33 319.73, 380.76 286.04, 411.35 251.81" stroke="#1e1e1e" stroke-width="1" fill="none"></path><path d="M120.58 16.9 C135.29 7.42, 156.3 5.66, 174.75 3.22 C193.2 0.78, 212.62 0.36, 231.28 2.26 C249.95 4.16, 269.62 8.23, 286.75 14.61 C303.89 21, 319.55 30.16, 334.08 40.56 C348.62 50.96, 362.94 63.01, 373.98 76.99 C385.01 90.98, 393.72 108.25, 400.3 124.46 C406.87 140.66, 411.56 157.39, 413.42 174.22 C415.29 191.04, 414.79 208.41, 411.5 225.39 C408.21 242.36, 402.06 260.55, 393.67 276.09 C385.28 291.62, 373.71 305.86, 361.14 318.61 C348.57 331.35, 333.87 343.32, 318.25 352.54 C302.62 361.75, 285.11 368.96, 267.38 373.91 C249.66 378.85, 230.64 381.96, 211.89 382.22 C193.15 382.48, 172.87 379.66, 154.92 375.46 C136.98 371.26, 120.21 365.51, 104.22 357.02 C88.23 348.53, 72.24 336.93, 58.98 324.53 C45.72 312.12, 33.51 297.76, 24.65 282.61 C15.79 267.45, 9.73 250.34, 5.82 233.6 C1.91 216.87, 0.4 199.46, 1.19 182.21 C1.97 164.95, 4.76 146.37, 10.54 130.07 C16.32 113.76, 25.53 98.64, 35.87 84.38 C46.2 70.11, 54.97 57.06, 72.55 44.48 C90.13 31.9, 126.26 15.04, 141.36 8.9 C156.45 2.75, 161.86 4.27, 163.12 7.62 M115.66 20.64 C130.07 10.38, 150.97 5.59, 169.23 2.36 C187.48 -0.88, 206.53 -0.31, 225.16 1.21 C243.79 2.72, 263.71 5.33, 281.01 11.43 C298.3 17.53, 314.21 27.47, 328.94 37.79 C343.66 48.1, 357.43 59.75, 369.35 73.31 C381.27 86.87, 393.05 103.29, 400.48 119.14 C407.9 134.99, 412.14 151.57, 413.9 168.41 C415.66 185.24, 414.1 203.33, 411.03 220.15 C407.97 236.97, 403.1 253.55, 395.5 269.31 C387.91 285.06, 377.41 301.41, 365.46 314.67 C353.51 327.93, 339.16 339.26, 323.8 348.85 C308.44 358.45, 290.98 366.57, 273.31 372.23 C255.64 377.88, 236.66 381.83, 217.76 382.79 C198.86 383.76, 178.12 381.88, 159.92 378 C141.72 374.11, 124.97 367.68, 108.57 359.46 C92.16 351.24, 75 340.49, 61.51 328.67 C48.01 316.84, 36.71 303.49, 27.58 288.53 C18.46 273.56, 11.31 255.81, 6.74 238.9 C2.17 221.99, -0.13 204.02, 0.14 187.06 C0.41 170.1, 2.94 153.56, 8.37 137.13 C13.8 120.69, 22.86 103.13, 32.71 88.45 C42.57 73.76, 53.52 60.61, 67.49 49.02 C81.47 37.43, 108.47 23.14, 116.55 18.91 C124.62 14.67, 114.8 20.56, 115.97 23.62" stroke="#1e1e1e" stroke-width="2" fill="none"></path></g><g stroke-linecap="round" transform="translate(2020.5862411869327 375.4771337771807) rotate(0 207.35957980106605 191.20169046591786)"><path d="M37.28 81.43 C37.28 81.43, 37.28 81.43, 37.28 81.43 M37.28 81.43 C37.28 81.43, 37.28 81.43, 37.28 81.43 M15.95 117.87 C33.37 97.04, 50.7 76.62, 79.85 46.77 M16.99 116.18 C41.98 87.87, 64.58 60.98, 78.58 47.12 M13.79 131.85 C45.3 96.72, 76.1 62.71, 98.86 34.54 M14.32 131.05 C38.37 104.35, 62.11 77.22, 99.59 33.31 M11.18 146.82 C48.5 107.88, 83.13 65.13, 126.25 16.81 M12.32 147.33 C51 99.49, 91.66 53.61, 125.02 16.73 M9.3 164.17 C40.8 125.29, 74.29 84.78, 138.49 13.07 M7.84 163.63 C51.06 113.35, 95.33 64.12, 137.62 13.78 M4.24 180.74 C42.23 137.06, 79.81 91.73, 152.99 11.59 M3.83 182.44 C43.52 132.76, 85.16 86.59, 150.71 10.43 M3.13 191.57 C49.77 139.1, 96.94 87.42, 165.74 7.26 M3.99 192.9 C39.55 152.55, 74.98 109.71, 165.11 7.86 M5.05 205.49 C72.79 125.39, 142.57 45.14, 179.09 1.27 M4.6 204.22 C67.53 132.35, 130.97 58.38, 179.17 3.06 M4.29 214.62 C75.47 133.96, 146.43 54.61, 189.26 3.22 M5.39 215.89 C69.59 141.68, 132.98 69.39, 190.66 3.14 M6.29 226.93 C52.73 171.9, 98.03 121.58, 201.7 3.7 M5.86 226.24 C63.85 159.49, 120.77 95.39, 200.22 3.88 M9.5 237.02 C78.79 156.72, 148.69 77.01, 211.47 3.65 M8.36 236.51 C77.74 155.8, 146.75 76.04, 210.77 2.94 M11.75 245.3 C85.1 155.75, 161.6 71.27, 221.6 3.49 M11.28 244.63 C55.51 196.22, 98.79 147.75, 221.1 3.27 M15.15 252.51 C60.81 200.95, 108.71 146.21, 232.82 4.29 M15.14 252.42 C87.24 171.56, 158.53 88.3, 232.99 3.29 M19.46 262.65 C101.4 164.7, 184.72 70.03, 240.07 6.66 M18.35 262.01 C80.87 189.08, 142.47 117.39, 239.79 7.6 M20.79 268.76 C85.54 198.92, 146.1 126.1, 249.29 8.59 M21.77 269.06 C86.76 196.29, 151.33 123.2, 249.45 9 M24.24 277.67 C103.86 187.51, 183.37 98.8, 257.74 11.21 M26.13 277.34 C114.39 178.53, 201.68 78.07, 257.57 11.14 M30.68 285.66 C89.25 217.86, 147.06 149.86, 267.29 12.04 M29.15 285.55 C81.25 227.5, 132.89 168.23, 266.69 12.75 M35.39 291.24 C118.68 195.35, 203.4 97.37, 275.55 14.22 M34.72 292.76 C127.02 183.58, 221.89 74.2, 275.53 15.05 M40.85 297.18 C116.21 209.36, 193.97 121.52, 283.62 16.47 M39.74 298.64 C92.7 237.04, 144.95 176.93, 284.86 16.2 M44.84 304.91 C133.24 203.21, 222.48 101.78, 292.56 18.5 M44.49 304.73 C113.91 226.15, 183.33 146.1, 293.63 18.28 M48.88 310.66 C120.89 229.58, 191.01 148.78, 300.64 22.28 M49.23 310.82 C102.31 249.31, 155.05 188.59, 300.56 22.97 M54.81 316.75 C139.16 218.76, 223.37 118.88, 306.98 26.91 M54.11 317.18 C120.6 244.97, 185.85 169.5, 308.19 25.91 M59.54 324.27 C113.99 259.69, 169.14 197.22, 314.83 29.22 M59.17 325.02 C110.34 262.89, 163.68 202.04, 315.13 29.68 M65.79 329.56 C150.99 233.2, 234.4 136.07, 320.81 33.87 M66.3 328.79 C166.98 212.58, 267.34 97.36, 321.31 34.25 M70.98 333.91 C127.19 270.2, 182.4 205.84, 328.25 37.46 M72.38 334.45 C133.43 262.27, 195.32 191.29, 328.99 38.1 M77.66 338.71 C129.62 279.48, 182.29 219.92, 335.11 43.51 M79.19 338.94 C135.47 272.67, 192.91 207.96, 336.1 43.26 M84.21 344.24 C144.18 275.24, 203.58 207.92, 343.5 47.68 M84.74 344.49 C142.73 277.96, 200.64 211.17, 342.82 46.73 M91.95 348.63 C163.28 263.66, 235.25 181.35, 347.99 52.63 M91.05 348.87 C174.88 255.36, 256.28 160.89, 348.76 52.45 M97.84 353.62 C161.43 283.37, 222.78 211.37, 353.66 57.91 M98.65 352.81 C178.29 259.94, 258.73 166.79, 354.23 58.2 M105.22 358.08 C185.37 263.72, 268.22 167.73, 359.51 64.02 M104.06 358.63 C188.12 263.11, 271.3 166.48, 360.57 63.63 M112.8 361.63 C185.68 276.8, 259.74 190.38, 366.95 69.92 M112.63 361.65 C195.16 263.34, 279.99 166.35, 366.41 69.45 M120.24 364.88 C204.69 268.8, 288.87 170.93, 371.71 74.82 M120.41 363.63 C206.57 265.34, 292.21 166.86, 370.85 75.11 M126.65 367.61 C190.67 295.87, 253.88 221.4, 378.03 79.66 M127.23 368.19 C213.98 266.4, 302.25 164.86, 377.79 80.73 M135.58 370.98 C224.57 267.02, 314.24 165.23, 382.32 88.05 M135.32 370.29 C214.33 281.34, 292.13 191.93, 381.26 87.35 M143.38 372.9 C202.89 305.08, 265.92 234.41, 385.87 94.4 M143.16 373.73 C215.53 290.66, 287.79 206.5, 386.14 95.23 M150.35 378.32 C221.3 294.97, 294.85 211.55, 391.01 100.91 M151.29 377.78 C211.97 307.78, 274.28 238.05, 390.35 102.03 M159.29 381 C219 311.62, 279.49 242.84, 395.08 109.03 M157.71 381.5 C246.39 280.56, 333.7 180.9, 394.28 109.36 M167.44 383.81 C233.5 305.75, 300.88 228.03, 399.43 117.09 M168.08 382.29 C220.7 323.03, 273.28 261.86, 399.39 116.04 M176.49 384.45 C238.14 313.07, 295.54 246.61, 403.86 124.17 M177.54 383.53 C264.3 281.34, 353.95 179.84, 403.21 124 M188.72 383.95 C256.25 305.55, 324.53 223.88, 409.37 128.94 M187.56 384.68 C265.61 294.93, 342.54 205.55, 407.94 129.84 M198.32 384.9 C268.11 305.16, 340.57 223.07, 410.37 139.08 M197.19 384.77 C257.71 315.87, 316.66 246.99, 411.08 139.86 M211.44 381.47 C287.69 289.49, 366.48 198.85, 411.37 149.84 M210.63 382.75 C251.77 333.43, 293.93 285.83, 413.32 149.22 M220.86 380.79 C292.18 300.51, 360.64 219.59, 415.7 159.76 M221.94 381.59 C295.98 298.49, 369.04 214.77, 414.17 158.6 M231.76 381.74 C302.67 299.15, 374.12 217.01, 416.25 170.49 M233.04 380.03 C274.04 332.81, 314.69 287.72, 417.57 168.87 M244.88 380.19 C295.91 322.75, 345.95 263.86, 417.14 179.91 M244.83 379.22 C297.36 319.55, 348.92 260.4, 417.25 180.81 M258.12 376.37 C293.16 337.33, 328.83 298.56, 417.66 192.67 M257.15 377.01 C304.06 324.42, 349.07 271.28, 417.23 193.82 M266.41 378.68 C311.35 327.32, 354.58 276.89, 415.87 206.35 M266.5 377.81 C313.58 324.62, 360.53 271.21, 415.33 206.68 M283.17 370.55 C314.76 333.9, 347.93 298.81, 413.26 220.07 M283.03 370.72 C328.7 318.3, 375.93 264.83, 415.13 221.23 M301.16 364.27 C322.62 337.39, 348.13 307.67, 415.25 231.62 M300.78 363.7 C342.42 319.22, 380.95 272.93, 413.92 232.64 M317.06 357.05 C342.53 328.44, 364.42 302.83, 406.86 254.47 M318.59 356.14 C338.23 333.63, 358.52 309.64, 406.98 252.84 M352.82 329.46 C363.56 313.93, 377.98 299.22, 396.1 279.76 M350.24 331.03 C367.48 310.16, 384.75 291.75, 394.51 279.35" stroke="#1e1e1e" stroke-width="1" fill="none"></path><path d="M178.4 1.89 C195.7 -3.35, 216.57 0.19, 234.97 2.28 C253.37 4.37, 271.78 7.87, 288.8 14.43 C305.82 20.99, 322.71 30.93, 337.08 41.65 C351.46 52.37, 364.05 64.8, 375.06 78.75 C386.08 92.69, 396.66 108.92, 403.16 125.29 C409.67 141.67, 412.98 159.7, 414.09 176.97 C415.2 194.24, 413.41 212.22, 409.83 228.93 C406.25 245.64, 400.96 262.01, 392.62 277.21 C384.28 292.42, 372.47 307.4, 359.79 320.16 C347.1 332.92, 332.39 344.62, 316.51 353.79 C300.64 362.97, 282.49 370.53, 264.54 375.19 C246.6 379.86, 227.57 381.56, 208.83 381.8 C190.09 382.05, 170 381.03, 152.1 376.66 C134.2 372.29, 117.32 364.65, 101.45 355.57 C85.59 346.49, 69.82 334.61, 56.9 322.19 C43.99 309.77, 32.73 296.01, 23.98 281.06 C15.22 266.11, 8.25 249.42, 4.34 232.5 C0.44 215.59, -0.52 196.85, 0.52 179.58 C1.57 162.32, 4.51 145.25, 10.63 128.9 C16.75 112.55, 26.63 95.7, 37.25 81.47 C47.87 67.25, 60.17 54.55, 74.34 43.55 C88.52 32.56, 103.24 22.52, 122.31 15.51 C141.38 8.5, 175.44 3.57, 188.76 1.49 C202.07 -0.6, 201.78 -0.13, 202.18 2.99 M212.57 -0.3 C230.31 -2.83, 251.85 4.13, 269.65 9.11 C287.46 14.09, 303.74 20.5, 319.4 29.56 C335.06 38.63, 351.19 50.16, 363.63 63.5 C376.08 76.85, 385.97 93.82, 394.07 109.64 C402.17 125.47, 409.02 141.94, 412.22 158.45 C415.42 174.97, 415.34 191.77, 413.27 208.72 C411.21 225.66, 406.77 243.93, 399.84 260.12 C392.9 276.32, 382.77 292.01, 371.68 305.86 C360.6 319.71, 348.02 332.67, 333.34 343.2 C318.67 353.74, 301 362.68, 283.64 369.08 C266.27 375.48, 247.49 380.03, 229.16 381.6 C210.83 383.16, 191.95 381.33, 173.68 378.47 C155.41 375.6, 136.49 371.75, 119.55 364.42 C102.61 357.09, 86.17 345.86, 72.04 334.5 C57.91 323.13, 44.93 310.35, 34.79 296.26 C24.65 282.17, 17.01 266.24, 11.19 249.98 C5.37 233.72, 0.85 215.98, -0.14 198.71 C-1.12 181.43, 0.7 163.01, 5.26 146.34 C9.82 129.66, 18.14 113.82, 27.24 98.65 C36.33 83.48, 46.86 67.43, 59.82 55.31 C72.78 43.19, 88.86 34.46, 104.98 25.95 C121.09 17.43, 138.34 8.72, 156.49 4.21 C174.65 -0.29, 204.39 -0.95, 213.93 -1.07 C223.47 -1.19, 214.07 0.24, 213.76 3.51" stroke="#1e1e1e" stroke-width="2" fill="none"></path></g><g stroke-linecap="round" transform="translate(1810.900656524385 1014.2867056561037) rotate(0 207.35957980106605 191.20169046591786)"><path d="M40.82 77.88 C40.82 77.88, 40.82 77.88, 40.82 77.88 M40.82 77.88 C40.82 77.88, 40.82 77.88, 40.82 77.88 M16.47 117.89 C29.42 105.26, 43.3 88.99, 84.59 42.83 M14.91 119.1 C30.64 101.64, 46.25 84.11, 82.94 42.17 M19.05 128.64 C40.94 100.78, 63.18 76.53, 101.87 33.62 M19.41 127.75 C42.45 100.3, 64.89 74.83, 101.41 31.23 M16.93 141.58 C47.03 109.75, 76.84 74.57, 123.5 21.86 M14.96 142.64 C57.98 96.58, 98.11 48.69, 121.88 20.53 M11.54 158.48 C52.62 111.38, 96.77 62.1, 136.8 16.58 M10.89 160.88 C43.3 122.86, 74.35 86.84, 134.9 17.79 M6.45 176.49 C57.88 120.86, 110.53 59.89, 148.87 16.56 M6.07 178.45 C59.05 116.45, 111.31 55.78, 148.11 14.66 M5.97 189.76 C46.89 146.85, 84.78 100.37, 163.04 10.36 M7.79 188.66 C53.71 135.43, 100.93 81.99, 161.39 12.25 M8.33 201.13 C59.22 140.32, 111.54 80.83, 174.87 8.46 M8.11 201.07 C53.82 147.51, 101.94 94.91, 175.16 8.75 M7.66 212.97 C49.7 167, 87.73 123.11, 187.81 6.12 M8.3 212.45 C58.42 156.09, 108.14 96.82, 188.97 5.68 M5.26 227.56 C64.5 161.53, 121.02 94.49, 197.46 7.32 M5.92 226.53 C53.59 175.89, 98.96 124.4, 198.62 5.21 M8.68 235.92 C83.51 150.59, 158.28 65.07, 209.21 7.95 M9.45 236.61 C66.97 167.95, 124.37 102.45, 209.4 7.12 M10.73 245.58 C73.15 175.59, 133.31 104.47, 218.38 5.66 M11.51 245.64 C57.82 192.49, 103.23 140.4, 219.69 6 M14.94 255.34 C76.87 182.76, 141.71 110.83, 229.41 6.47 M15.13 253.62 C76.69 184.81, 137.5 115.17, 229.32 7.75 M17.99 262.4 C97.53 170.43, 177.28 77.3, 243.36 4.38 M18.08 262.04 C72.97 196.23, 129.83 131.25, 242.11 4.24 M21.51 270.25 C67.28 218.16, 114.76 164.51, 250.37 6.56 M21.22 271.7 C80.87 206.09, 138.68 139.45, 251.33 5.97 M24.34 279.06 C73.98 224.95, 120.55 171.49, 258.56 8.2 M25.25 278.53 C120.37 171.28, 213.29 63.97, 259.11 9.42 M30.11 284.55 C122.09 180.04, 213.43 71.77, 267.1 11.06 M29.9 285.67 C84.63 223.19, 140.6 159.18, 268.34 11.43 M34.98 292.4 C129.99 183.82, 223.38 77.11, 277.65 14.47 M35.02 292.98 C121.4 189.96, 211.59 87.83, 276.6 13.86 M39.68 298.44 C139.08 186.61, 235.54 74.51, 284.98 17.18 M40.37 298.42 C115.43 210.76, 190.6 122.94, 284.92 15.73 M44.08 304.6 C128.73 208.72, 212.9 113.06, 294.1 17.58 M44.62 305.68 C123.07 214.07, 201.82 124.06, 294.32 17.9 M49.04 311.31 C107.02 246.58, 161.91 180.61, 301.45 22.66 M49.06 311.34 C101.99 251.99, 153.66 192.46, 301.18 23.12 M53.75 318.46 C136.47 222.9, 220.75 128.01, 306.32 26.37 M54 319.73 C113.45 252.49, 172.37 183.75, 307.86 27.11 M59 323.65 C144.09 227.56, 225.65 131.16, 315.44 31.92 M60.33 323.95 C131.94 240.84, 205.01 156.43, 314.74 30.75 M66.57 329.13 C139.06 242.43, 211.68 159.89, 321.5 35.56 M65.87 328.92 C159.81 221.32, 251.58 114.73, 321.7 35.12 M71.98 333.26 C127.34 269.11, 182.49 206.01, 329.42 39.67 M72.76 333.96 C167.06 223.44, 261.29 114.07, 329.02 38.83 M78.87 338.31 C134.55 276.02, 189.3 212.7, 335.07 44.28 M78.83 339.04 C178.81 225.33, 278.83 109.46, 335.38 44.22 M85.26 344.76 C151.89 267.67, 218.55 190.01, 342.69 47.58 M85.53 344.33 C162.6 252.71, 241.47 162.08, 342.92 48.12 M91.41 348.5 C181.45 244.9, 270.61 142.61, 347.71 52.33 M92.21 348.08 C152.78 277.51, 214.49 205.5, 348.77 52.29 M98.26 354.23 C168.06 269.42, 239.56 188.4, 354.77 58.6 M97.43 353.72 C199.39 235.87, 302.02 119.25, 354.22 59.2 M106.79 356.68 C205.68 242.22, 306.53 127.69, 359.9 63.25 M105.82 356.3 C177.43 273.38, 250.93 188.31, 360.23 64.04 M113.9 359.96 C202.18 258.61, 293.51 154.34, 366.29 70.32 M112.86 360.3 C208.9 250.65, 306.38 138.62, 365.07 70.33 M122.11 364.36 C195.94 275.52, 273.91 187.02, 370.63 75.89 M120.81 363.4 C208.96 263.63, 295.3 164.55, 371.09 75.57 M129.31 365.43 C185.73 302.15, 242.84 236.57, 378.08 81.68 M129.15 367.05 C191.64 293.32, 256.21 219.92, 376.55 81.91 M136.61 369.72 C211.85 284.92, 287.67 197.68, 381.69 87.42 M136.87 370.09 C205.06 291.84, 271.77 214.96, 383.02 86.77 M145.18 374.18 C216.96 293.45, 285.29 212.36, 387.14 94.49 M144.6 372.85 C203.87 305.36, 263.29 236.54, 386.94 94.42 M150.56 378.65 C211.37 307.55, 273.32 234.72, 390.22 101.62 M150.83 378.39 C239.79 276.95, 328.17 174.41, 390.33 102.69 M160.54 380.04 C251.68 275.61, 341.29 171.64, 393.54 110.72 M160.43 379.89 C212.2 319.15, 263.99 259.2, 395.02 109.24 M169.11 379.81 C235.12 304.52, 303.54 225.91, 398 117.95 M170.33 381.21 C259.68 277.93, 348.02 175.43, 397.93 118.65 M177.95 381.51 C228.39 324.21, 278.03 267.29, 403.13 125.55 M178.89 382.49 C248.24 304.6, 316.68 225.53, 402.35 125.68 M189.44 382.92 C273.26 285.95, 358.83 187.43, 405.36 133.86 M188.36 383.26 C255.37 304.03, 323.57 226.43, 405.4 133.58 M198.89 386.02 C274.96 297.64, 350.03 209.69, 407.38 144.86 M198.07 385.51 C253.28 320.42, 309.19 256.85, 407.62 144.24 M206.31 384.77 C288.06 293.19, 370.23 200.72, 409.2 154.66 M207.35 386.28 C284.47 298.28, 361.73 209.29, 410.05 154.05 M219.81 384.94 C262.83 335.02, 306.48 285.49, 410.7 162.17 M218.92 385.54 C274.76 318.75, 331.27 254.51, 411.94 163.31 M231.67 382.46 C266.8 341.64, 304.88 298.57, 413.7 173.25 M230.15 383.82 C281.77 327.07, 330.48 269.38, 413.24 172.44 M242.5 382.35 C287.97 327.04, 337.16 272, 415.92 183.09 M242.3 383.19 C285.7 330.67, 329.26 280.24, 415.36 182.94 M253.63 382.63 C313.46 315.6, 368.57 248.27, 413.53 197.34 M254.38 380.64 C302.63 326, 350.75 269.97, 413.98 196.95 M264.83 379.72 C303.05 337.91, 339.76 293.64, 414.58 209.22 M264.6 381.66 C299.45 341.32, 331.86 302.04, 412.37 210.58 M279.41 375.28 C317.62 334.33, 352.34 294.32, 412.48 223.54 M279.87 376.2 C311.44 341.51, 343.33 303.98, 412.63 224.16 M297.56 369.11 C336.98 324.91, 375.47 278.48, 410.3 234.67 M296.1 369.13 C338.5 320.32, 379.68 272.39, 412.2 236.54 M314.19 360.89 C333.31 337.57, 353.22 314.14, 403.07 258.79 M315.16 361.65 C338.25 330.86, 364.16 301.88, 402.54 258.39" stroke="#1e1e1e" stroke-width="1" fill="none"></path><path d="M295.11 17.97 C312.47 21.91, 327.13 34.89, 341.15 45.87 C355.17 56.86, 368.86 69.45, 379.22 83.87 C389.59 98.29, 397.54 115.93, 403.34 132.38 C409.14 148.84, 412.98 165.73, 414.03 182.6 C415.08 199.48, 413.73 216.79, 409.63 233.61 C405.54 250.44, 398.58 268.36, 389.46 283.55 C380.34 298.73, 368.08 312.52, 354.91 324.74 C341.74 336.97, 326.5 348.33, 310.45 356.9 C294.4 365.47, 276.55 371.94, 258.6 376.16 C240.65 380.38, 221.52 382.7, 202.78 382.21 C184.03 381.71, 163.87 378.11, 146.15 373.18 C128.42 368.26, 112 361.78, 96.44 352.64 C80.88 343.51, 65.43 331.29, 52.77 318.37 C40.1 305.46, 28.59 290.64, 20.46 275.14 C12.33 259.64, 7.08 242.26, 3.98 225.37 C0.87 208.48, 0.22 191.02, 1.82 173.82 C3.43 156.62, 7.05 138.2, 13.61 122.15 C20.16 106.1, 30.13 91.35, 41.14 77.52 C52.14 63.69, 64.99 49.92, 79.63 39.18 C94.27 28.45, 111.73 19.54, 128.96 13.12 C146.2 6.71, 164.34 2.33, 183.04 0.71 C201.74 -0.9, 221.55 0.06, 241.17 3.44 C260.79 6.82, 289.73 16.92, 300.73 20.98 C311.74 25.04, 308.52 24.97, 307.2 27.81 M145.08 8.06 C160.81 0.22, 180.69 1.18, 199.03 0.72 C217.37 0.26, 236.55 1.22, 255.11 5.3 C273.66 9.39, 293.79 16.86, 310.37 25.24 C326.95 33.62, 341.85 43.65, 354.61 55.57 C367.38 67.49, 377.99 81.93, 386.96 96.75 C395.93 111.57, 403.85 127.66, 408.43 144.49 C413 161.31, 414.97 180.38, 414.42 197.69 C413.88 215.01, 410.74 232.06, 405.18 248.4 C399.62 264.74, 391.28 281.15, 381.06 295.74 C370.85 310.34, 358.23 324.53, 343.9 335.95 C329.57 347.37, 311.94 356.95, 295.08 364.27 C278.22 371.59, 261.13 376.97, 242.73 379.87 C224.34 382.77, 203.4 383.3, 184.73 381.7 C166.06 380.09, 147.82 376.65, 130.72 370.24 C113.62 363.83, 96.89 353.9, 82.14 343.24 C67.39 332.58, 53.57 319.77, 42.21 306.29 C30.86 292.82, 20.79 278.37, 14 262.4 C7.21 246.44, 3.52 227.75, 1.48 210.48 C-0.57 193.2, -1.56 175.8, 1.71 158.75 C4.98 141.71, 13.1 123.67, 21.09 108.21 C29.08 92.74, 37.76 78.71, 49.66 65.96 C61.56 53.21, 76.74 41.34, 92.51 31.69 C108.27 22.05, 135.47 11.4, 144.26 8.09 C153.05 4.78, 144.37 8.44, 145.24 11.83" stroke="#1e1e1e" stroke-width="2" fill="none"></path></g><g stroke-linecap="round" transform="translate(830.7424584506177 2028.5797663493554) rotate(0 207.35957980106605 191.20169046591786)"><path d="M29.78 90.81 C29.78 90.81, 29.78 90.81, 29.78 90.81 M29.78 90.81 C29.78 90.81, 29.78 90.81, 29.78 90.81 M19.86 116.52 C39.33 96.24, 57.52 71.38, 71.38 57.27 M18.59 116.88 C32.28 100.85, 45.84 84.89, 71.2 55.73 M8.04 139.76 C31.4 111.5, 57.54 83.86, 91.91 42.49 M8.76 138.53 C33.56 109.74, 57.96 81.35, 93.22 41.6 M7.88 153.73 C49.43 108.96, 89.33 62.6, 116.61 25.69 M6.64 153.65 C32.99 123.67, 58.57 94.5, 117.74 25.92 M4.37 168.11 C42.62 129.86, 77.04 85.13, 132.79 21.83 M3.5 168.82 C28.85 138.36, 55.33 108.83, 132.13 21.1 M3.13 184.74 C44.17 137.33, 87.72 90.27, 149.49 15.34 M0.84 183.57 C33.96 145.3, 66.77 107.1, 147.17 15.52 M4.7 193.25 C36.65 155.8, 70.76 114.83, 168.96 4.5 M4.08 193.84 C60.92 131.22, 115.56 68.17, 169.66 3.15 M4.29 203.09 C66.21 136.03, 124.59 66.95, 179.64 2.72 M4.37 204.89 C68.99 134.14, 130.67 61.32, 179.18 3.7 M5.93 214.86 C52.98 160.13, 99.29 107.89, 191.05 3.08 M7.33 214.78 C58.72 154.48, 111.85 94.37, 190.34 4.24 M9.85 225.15 C48.52 175.89, 90.67 129.6, 200.45 1.57 M8.36 225.33 C50.47 177.28, 89.89 131.54, 201.79 2.93 M10.42 235.67 C62.13 176.65, 114.18 117.06, 212.07 4.27 M9.72 234.95 C72.62 163.33, 136.13 89.72, 212.42 2.59 M11.37 246.07 C52.49 194.65, 95.89 145.16, 223.08 1.85 M10.88 245.85 C55.31 193.72, 101.14 140.74, 223.17 2.01 M16.03 254.41 C80.89 178.4, 146.07 101.75, 231.44 3.86 M16.21 253.41 C90.82 169.43, 164.32 85.3, 233.44 3.42 M19.34 261.32 C80.79 190.57, 143.23 117.82, 243.39 6.28 M19.06 262.25 C79.99 191.65, 140.55 122.08, 241.66 5.17 M22.66 270.04 C100.86 181.53, 178.38 93.06, 250.3 5.77 M22.82 270.45 C97.15 182.11, 171.74 94.78, 251.31 6.32 M26.52 277.94 C83.32 210.79, 137.12 148.32, 258.98 9.01 M26.35 277.87 C102.39 189.2, 177.95 103.39, 260.21 8.84 M30.81 284.82 C107.51 195.89, 185.1 107.19, 269.68 9.15 M30.22 285.52 C104.86 201.32, 178.99 115.58, 268.93 10.42 M33.18 293.78 C116.45 200.32, 197.92 105.81, 279.88 11.58 M33.16 294.6 C124.06 189.14, 216.18 83.64, 278.22 11.41 M37.97 299.81 C106.74 219.5, 177.93 140.45, 287 15.81 M39.2 299.54 C130.68 192.69, 221.62 87.81, 286.06 14.96 M42.96 306.36 C107.26 233.95, 169.36 161.94, 293.03 20.02 M44.04 306.14 C115.64 223.15, 188.4 138.21, 293.28 19.56 M49.74 311.66 C117.54 233.07, 186.59 152.69, 301.21 22.56 M49.65 312.34 C113.04 240.37, 174.77 169.04, 300.95 22.44 M54.12 318.54 C138.18 223.48, 220.15 128.89, 307.77 25.59 M55.32 317.55 C153.03 205.1, 252.8 90.25, 308.68 26.14 M59.99 323.12 C111.24 264.5, 164.85 204.18, 317.28 28.55 M60.29 323.58 C144.81 226.86, 228.79 129.56, 316.44 30.11 M64.66 329.29 C152.45 231.27, 237.02 133.34, 323.18 34.01 M65.16 329.66 C129.26 256.03, 192.68 182.32, 323.33 33.54 M70.13 335.14 C128.63 271.58, 187.36 205.34, 330.69 38.76 M70.88 335.78 C141.83 252.54, 214.16 168.65, 330.18 37.54 M77 341.18 C154.27 251.02, 232.22 164.32, 337.38 41.36 M77.97 340.93 C150.8 254.09, 225.49 168.92, 337.01 42.53 M84.73 346.11 C166.9 246.79, 252.07 150.02, 344.01 47.8 M84.04 345.16 C186.93 225.73, 290.75 107.22, 343 47.69 M91.18 348.8 C164.07 264.31, 235.25 182.07, 349.83 52.77 M91.95 348.61 C194.97 230.72, 296.67 113.46, 349.29 53.43 M97.5 353.33 C187.66 250.81, 276.8 148.39, 354.75 58.56 M98.08 353.61 C164.6 279.03, 230.36 204.23, 354.93 57.7 M104.67 357.93 C206.3 242.23, 305.73 126.78, 361.93 63.12 M105.73 357.53 C189.09 263.83, 271.41 169.52, 361.25 63.09 M113.42 362.31 C208.64 253.47, 303.32 144.76, 368.05 67.49 M112.88 361.84 C181.97 282.02, 250.41 203.99, 367.42 68.52 M120.8 364.2 C218.09 252.55, 315.6 140.53, 372.08 73.92 M119.95 364.48 C186.64 288.66, 252.22 212.47, 372.96 73.65 M129.75 366.01 C211.2 276.88, 290.72 183.58, 378.44 80.8 M129.51 367.09 C206.7 276.74, 285.43 186.98, 377.87 80.19 M137.98 369.87 C201.52 295.28, 265.81 221.63, 380.75 88.68 M136.92 369.17 C201.02 295.8, 266.34 219.7, 381.41 87.89 M145.47 371.7 C231.47 271.46, 318.62 169.49, 386.38 95.12 M145.73 372.52 C226.18 281.89, 305.47 189.52, 386.97 94.67 M153.89 374.43 C212.28 306.42, 272.95 237.69, 391.07 101.34 M153.23 375.56 C211.96 304.69, 273.3 235.66, 390.52 102.54 M162.55 377.27 C233.9 293.33, 306.13 210.36, 395.76 109.21 M161.74 377.59 C230.54 297.05, 300.37 215.66, 395.9 108.87 M168.87 383.07 C226.84 316.16, 285.62 250.63, 397.79 118.46 M168.83 382.02 C257.06 278.85, 347.81 174.97, 399.27 118 M179.21 383.36 C229.09 327.75, 276.17 271.17, 401.61 125.18 M178.55 383.19 C239.33 311.7, 300.68 241.48, 401.43 126.56 M189.31 382.82 C271.73 290.9, 352.55 197.45, 405.24 136.06 M187.86 383.74 C254.04 309.95, 317.71 236.65, 404.3 135.18 M198.17 383.91 C277.52 291, 359.41 198.27, 406.71 145.89 M198.9 384.71 C272.09 300.24, 345.84 216.04, 406.5 143.96 M207.04 385.63 C249.63 338.64, 293.49 292.91, 409.37 153.63 M209 385.01 C259.41 326.9, 310.97 266.91, 409.03 154.86 M221.22 384.23 C290.18 303.6, 356.42 225.93, 412.9 163.42 M219.68 383.06 C276.63 319.01, 332.62 253.12, 412.64 162.61 M232.92 382.13 C297.63 306.35, 363.15 232.44, 416.09 170.2 M234.24 380.51 C270.15 335.93, 306.8 293.75, 417.35 169.79 M245.62 377.96 C301.28 317.08, 355.44 252.96, 417.69 183.67 M245.73 378.87 C298.38 315.5, 352.01 254.33, 416.39 182.53 M260.58 374.11 C300.54 324.79, 343.53 276.55, 416.48 194.85 M260.15 375.27 C312.6 315.25, 364.51 255.26, 417.29 193.95 M272.57 371.94 C317.79 323.34, 360.21 269.73, 416.78 207.5 M272.02 372.28 C311.64 324.41, 352.89 277.91, 416.82 205.36 M279.89 374.45 C318.46 333.52, 353.16 290.01, 415.17 218.59 M281.56 375.48 C318.45 331.72, 358.08 286.59, 415.88 219.17 M298.84 366.28 C342.36 316.22, 382.7 269.69, 408.26 241.25 M297.51 367.3 C334.56 326.09, 371.44 283.45, 410.38 239.93 M315.38 360.45 C339.55 329.92, 366.56 300.28, 404.89 259.17 M315.49 358.82 C348.23 321.41, 380.8 284.52, 402.63 258.12 M332.82 353.28 C353.45 329.78, 371.45 306.24, 403.36 271.56 M331.24 352.87 C347.57 334.68, 364.33 316.72, 402.71 272.21" stroke="#1e1e1e" stroke-width="1" fill="none"></path><path d="M277.94 11.07 C295.55 13.71, 311.73 24.63, 327.05 34.59 C342.37 44.55, 358.04 57.23, 369.85 70.83 C381.67 84.44, 390.91 100.31, 397.95 116.24 C404.98 132.18, 409.54 149.55, 412.06 166.44 C414.58 183.33, 415.58 200.7, 413.05 217.6 C410.53 234.5, 404.49 251.99, 396.91 267.83 C389.32 283.68, 379.42 299.24, 367.56 312.64 C355.7 326.05, 341.06 338.53, 325.74 348.27 C310.42 358.01, 293.33 365.32, 275.63 371.1 C257.94 376.89, 238.07 381.75, 219.56 382.98 C201.05 384.2, 182.66 382.28, 164.56 378.43 C146.47 374.59, 127.57 367.84, 110.98 359.91 C94.39 351.97, 78.63 342.37, 65.01 330.83 C51.4 319.28, 38.88 305.48, 29.3 290.64 C19.72 275.8, 12.56 258.46, 7.54 241.77 C2.53 225.09, -0.92 207.83, -0.81 190.53 C-0.7 173.23, 3.09 154.6, 8.2 137.97 C13.31 121.34, 20.27 105.41, 29.85 90.73 C39.42 76.05, 51.89 61.37, 65.66 49.87 C79.42 38.37, 95.49 29.57, 112.42 21.74 C129.34 13.91, 148.86 6.34, 167.23 2.88 C185.6 -0.58, 201.33 -1.62, 222.66 1 C243.99 3.61, 280.71 13.96, 295.22 18.58 C309.74 23.19, 311.27 25.86, 309.76 28.71 M236.44 0.43 C254.57 0.07, 272.94 10.07, 290.05 17.27 C307.15 24.46, 324.69 33.17, 339.09 43.62 C353.49 54.07, 365.95 66.06, 376.45 79.95 C386.94 93.84, 396 110.6, 402.05 126.97 C408.11 143.34, 411.41 160.94, 412.78 178.2 C414.15 195.45, 413.95 213.58, 410.27 230.5 C406.59 247.41, 399.33 264.42, 390.69 279.69 C382.04 294.97, 370.92 309.87, 358.4 322.15 C345.87 334.43, 331.34 344.48, 315.52 353.38 C299.7 362.28, 281.49 370.94, 263.47 375.55 C245.44 380.15, 226.03 381.15, 207.37 381.01 C188.7 380.87, 169.28 379.13, 151.49 374.72 C133.69 370.31, 116.62 363.4, 100.6 354.56 C84.58 345.71, 68.34 334.32, 55.36 321.65 C42.38 308.98, 31.06 293.76, 22.73 278.53 C14.4 263.3, 9.12 247.27, 5.38 230.28 C1.63 213.3, -0.87 193.68, 0.26 176.63 C1.38 159.57, 5.96 144.16, 12.12 127.95 C18.29 111.73, 26.41 93.72, 37.24 79.33 C48.07 64.94, 62.43 52.26, 77.12 41.59 C91.8 30.93, 108.45 22.1, 125.35 15.34 C142.25 8.59, 160.21 3.58, 178.5 1.08 C196.78 -1.42, 225.39 -0.59, 235.06 0.35 C244.73 1.29, 236.94 3.21, 236.53 6.69" stroke="#1e1e1e" stroke-width="2" fill="none"></path></g><g stroke-linecap="round" transform="translate(1957.1929248936046 1974.9392679473085) rotate(0 207.35957980106605 191.20169046591786)"><path d="M63.57 52.61 C63.57 52.61, 63.57 52.61, 63.57 52.61 M63.57 52.61 C63.57 52.61, 63.57 52.61, 63.57 52.61 M35.83 99.82 C53.29 74.53, 77.36 49.77, 86.81 37.64 M34.18 99.16 C52.04 76.99, 71.4 55.52, 88.21 37.47 M7.19 143.44 C32.29 110.38, 59.49 82.36, 112.83 21.57 M6.73 141.05 C36.05 108.54, 64.26 77.25, 110.15 22.52 M7.17 156.59 C51.52 103.81, 92.83 52.75, 124.05 19.06 M5.55 155.26 C43.7 114.13, 79.56 71.12, 124.88 16.8 M5.19 168.84 C46.89 120.2, 91.4 68.71, 142.4 12.63 M3.51 169.91 C38.12 131.84, 70.79 93.81, 140.05 12.04 M2.34 185.95 C62.9 117.19, 121.21 45.18, 156.77 7.88 M1.61 184.12 C35.65 145.98, 68.74 107.89, 156.28 7.03 M4.68 193.44 C63.45 127.72, 123.43 60.06, 165.33 5.94 M3.08 195.27 C60.91 128.79, 117.19 62.8, 166.57 6.89 M4.74 205.08 C48.75 155.5, 90.8 107.17, 177.33 4.81 M5.03 205.37 C38.81 163.29, 74.76 122.65, 178.14 6.87 M5.22 217.06 C53.45 161.87, 100.41 106.41, 188.79 6.36 M6.37 216.63 C79.94 132.98, 153.57 48.1, 189.58 6.03 M6.34 228.08 C79.36 141.72, 151.89 57.53, 198.96 6.42 M7.49 225.98 C56.87 169.03, 106.02 111.25, 199.86 5.57 M10.21 237.76 C74.05 161.22, 140.32 87.02, 212.36 4.41 M10.41 236.94 C60.2 178.88, 109.41 121, 211.48 5.14 M10.21 246.06 C70.2 178.62, 131.36 108.47, 223.01 4.48 M11.51 246.39 C53.86 198.95, 96.37 150.33, 222.48 4.04 M15.32 253.65 C84.94 170.83, 156.56 90.9, 230.24 5.51 M15.23 254.92 C98.73 158.5, 181.16 62.19, 231.18 6.36 M19.44 262.88 C90.07 181.98, 163.47 98, 239.87 7.68 M18.18 262.74 C83.73 185.45, 151.64 108.9, 239.9 7.05 M21.84 270.34 C93.69 186.95, 165.21 106.03, 250.48 10.16 M22.81 269.75 C101.73 176.48, 183.03 83.14, 249.88 9.75 M26.1 276.5 C97.12 195.37, 165.72 116.66, 258.41 11.86 M26.66 277.73 C89.69 205.76, 152.54 132.89, 258.55 10.68 M29.39 285.4 C118.72 186.31, 206.46 84.91, 268.5 11.09 M30.64 285.78 C113.5 190.31, 195.23 96.53, 268.43 12.2 M34.69 294.85 C104.54 213.9, 173.28 133.46, 278.91 12.46 M33.65 294.25 C97.93 218.38, 162.38 143.55, 277.76 13.81 M38.75 301.34 C97.96 235.23, 156.66 167.86, 285.8 17.71 M38.69 299.89 C133.73 192.3, 226.13 84.87, 285.47 16.58 M44.59 305.51 C94.84 247.86, 146.23 189.8, 294.16 19.51 M44.81 305.83 C115.06 224.17, 187.33 141.92, 292.8 20.77 M50.63 312.1 C129.68 220.82, 211.62 127.83, 299.97 24.2 M50.36 312.57 C130.95 217.01, 212.97 123.38, 300.62 22.72 M54.18 317.32 C113.19 249.44, 173.19 183.03, 309.07 26.13 M55.72 318.06 C151.62 210.24, 246.6 100.56, 308.32 27.29 M61.33 325.13 C132.52 245.49, 202.26 163.31, 315.88 30.71 M60.63 323.97 C139.72 234.52, 218.16 144.74, 315.79 30.83 M66.74 329.53 C123.84 264.12, 179.11 200.05, 323.33 34.77 M66.94 329.1 C123.01 266.42, 179.46 201.9, 323.61 33.21 M72.68 335.9 C131.83 270.59, 189.56 203.45, 331.76 37.93 M72.29 335.07 C143.37 255.17, 214.62 173.31, 330.86 37.84 M78.35 340.51 C140.15 271.13, 199.46 199.81, 337.45 43.76 M78.65 340.46 C166.38 238.71, 255.9 136.14, 337.5 43.15 M85.31 344.57 C168.23 249.71, 252.7 152.66, 343.58 48.53 M85.54 345.11 C146.07 274.95, 206.66 204.75, 343.16 48.19 M91.64 347.81 C156.21 275.03, 220.98 201.38, 348.14 53.8 M92.69 347.77 C178.4 251.27, 264.44 152.98, 349.44 53.19 M100.01 352.57 C156.31 288.06, 211.46 223.51, 354.95 57.56 M99.46 353.17 C159.31 282.9, 218.75 213.97, 355.21 58.24 M105.8 356.47 C171.84 281.73, 237.82 205, 360.19 63.07 M106.12 357.25 C208.93 240.44, 310.17 123.43, 361.02 63.53 M113.49 362.03 C208.81 251.59, 302.86 139.55, 366.09 69.9 M112.28 362.04 C204.55 254.97, 297.14 148.42, 367.1 69.13 M119.15 366.09 C202.79 269.9, 284.64 175.7, 372.36 75.07 M119.6 365.77 C171.17 306.82, 223.48 247.1, 372.2 74.57 M129.22 368.86 C215.58 268.34, 303.17 167.9, 378.41 81.02 M127.69 369.08 C216.14 265.19, 304.7 162.45, 377.56 81.54 M135.46 371.58 C225.69 266.44, 316.66 163.51, 383.25 87.65 M136.78 370.93 C201.19 298.47, 264.62 226.1, 382.64 88.94 M145.5 373.36 C223.8 283.39, 302.97 193.93, 386.01 94.82 M145.3 373.3 C239.29 265.54, 333.61 156.4, 387.36 94.75 M152.51 375.97 C240.52 279.84, 323.64 180.98, 392.85 102.72 M152.63 377.04 C226.99 292.83, 299.91 208.66, 392.04 102.12 M160.43 379.78 C244.52 282.58, 328.71 186.55, 396.96 109.68 M161.91 378.31 C228.69 303.07, 294.88 225.8, 395.28 109.24 M170.8 380.23 C245.81 294.45, 320.44 210.64, 401.38 116.15 M170.73 380.92 C250.39 290.39, 330.55 198.37, 400.11 116.53 M181.83 381.03 C258.9 289.65, 335.81 199.18, 403.73 126.15 M181.05 381.16 C248.99 302.76, 316.26 225.41, 402.84 124.77 M190.62 381.8 C269.75 292.78, 347.66 202.63, 405.08 134.15 M190.66 381.51 C236.13 329.85, 280.11 278.99, 406.39 134.66 M200.51 383.74 C259.03 315.73, 318.95 250.09, 409.4 142.71 M200.76 383.13 C276.28 294.09, 350.29 207.43, 408.18 142.63 M210.2 384.49 C252.31 337.88, 291.26 290.1, 412.25 151.84 M211.05 383.87 C286.6 294.94, 363.58 208.23, 411.41 152.43 M219.57 382.93 C288.38 305.26, 356.87 225.63, 413.14 163.33 M220.81 384.08 C261.1 337.75, 300.84 291.74, 411.75 163.81 M228.49 387.22 C273.26 333.95, 320.4 279.47, 412.92 177.08 M228.02 386.41 C298.49 307.69, 368.01 227.05, 412.21 175.08 M242.51 383.48 C286.44 333.2, 333.59 280.95, 414.03 188.31 M241.95 383.32 C282.11 337.79, 322.74 291.16, 413.88 187.49 M253.89 381.88 C313.76 314.48, 372.54 248.61, 412.15 198.91 M254.35 381.49 C314.57 312.62, 375.01 242.94, 412.62 199.26 M268.73 377.9 C314.82 323.57, 365.38 268.31, 414.4 212.35 M266.51 379.26 C311.02 330.47, 353.25 281.15, 413.18 211.44 M283.02 373.37 C315.96 333.42, 350 294.73, 418.16 217.81 M283.17 373.99 C335.4 314.04, 387.36 253.87, 417.23 218.81 M299.21 363.36 C341.43 318.87, 380.65 276.28, 411.06 236.93 M301.12 365.23 C329.19 333.31, 359.27 299.32, 412.51 236.9 M318.88 356.54 C342.73 330.63, 367.98 301.87, 409.18 253.14 M318.36 356.13 C344.19 328.36, 366.49 300.92, 406.69 255.2" stroke="#ced4da" stroke-width="1" fill="none"></path><path d="M218.3 1.28 C236.15 -0.72, 256.36 5.05, 274.21 10.33 C292.06 15.61, 309.93 23.1, 325.41 32.94 C340.88 42.78, 355.31 56.03, 367.08 69.36 C378.84 82.69, 388.53 97.3, 396.02 112.93 C403.51 128.56, 409.17 146.17, 412.01 163.17 C414.86 180.16, 415.3 197.86, 413.08 214.88 C410.86 231.91, 406.06 249.59, 398.72 265.34 C391.37 281.09, 380.52 295.84, 369.02 309.4 C357.52 322.95, 344.69 336.46, 329.71 346.67 C314.73 356.88, 296.9 364.79, 279.14 370.65 C261.37 376.5, 241.68 380.48, 223.14 381.79 C204.61 383.09, 185.98 381.78, 167.93 378.49 C149.89 375.2, 131.65 369.87, 114.9 362.05 C98.14 354.22, 81.28 343.12, 67.41 331.53 C53.55 319.94, 41.65 307.13, 31.69 292.52 C21.72 277.91, 12.95 260.56, 7.62 243.86 C2.3 227.16, -0.02 209.42, -0.26 192.3 C-0.5 175.17, 1.17 157.37, 6.18 141.09 C11.19 124.81, 20.28 109.31, 29.8 94.62 C39.31 79.93, 49.84 64.97, 63.28 52.94 C76.73 40.92, 93.75 30.53, 110.46 22.45 C127.18 14.38, 144.77 8.17, 163.58 4.49 C182.38 0.81, 212.49 0.26, 223.29 0.36 C234.1 0.46, 228.69 2, 228.41 5.08 M250.64 4.63 C268.99 4.88, 286.97 13.22, 303.12 20.87 C319.27 28.52, 334.05 38.97, 347.53 50.52 C361.01 62.07, 374.11 75.37, 383.99 90.17 C393.86 104.97, 401.63 122.63, 406.78 139.31 C411.94 156, 414.79 173.13, 414.9 190.28 C415.01 207.43, 412.43 225.42, 407.43 242.2 C402.44 258.98, 394.9 276.13, 384.96 290.95 C375.02 305.78, 361.42 319.46, 347.79 331.15 C334.16 342.84, 319.73 353.18, 303.17 361.09 C286.61 369.01, 266.79 374.98, 248.42 378.65 C230.05 382.33, 211.3 384.41, 192.94 383.16 C174.58 381.91, 155.75 377.16, 138.27 371.16 C120.8 365.15, 103.44 356.8, 88.1 347.14 C72.76 337.47, 57.97 326.44, 46.23 313.15 C34.49 299.85, 25.26 283.29, 17.67 267.36 C10.07 251.43, 3.12 234.69, 0.66 217.55 C-1.81 200.42, 0.38 181.54, 2.87 164.56 C5.37 147.59, 8.58 131.27, 15.63 115.69 C22.68 100.12, 33.26 84.69, 45.19 71.12 C57.11 57.55, 71.86 44.41, 87.16 34.28 C102.46 24.15, 119.61 15.78, 136.99 10.36 C154.38 4.93, 172.58 2.87, 191.48 1.73 C210.38 0.6, 240.8 2.73, 250.38 3.57 C259.95 4.41, 249.95 3.83, 248.93 6.78" stroke="#1e1e1e" stroke-width="2" fill="none"></path></g><g stroke-linecap="round" transform="translate(2552.114816261762 1253.2307439924948) rotate(0 207.35957980106605 191.20169046591786)"><path d="M28.58 93.74 C28.58 93.74, 28.58 93.74, 28.58 93.74 M28.58 93.74 C28.58 93.74, 28.58 93.74, 28.58 93.74 M17.69 120.58 C36.11 95.68, 57 74.36, 70.27 59.99 M17.52 119.04 C32.6 101.81, 48.33 82.52, 69.75 58.72 M5.43 143.53 C35.77 110.57, 64.76 74.06, 109.18 24.64 M6.73 142.65 C32.34 114.5, 55.71 88.66, 110.01 24.85 M4.53 156.17 C49.07 102.01, 97.21 51.4, 124.52 18.12 M5.66 156.4 C41.76 114.64, 76.58 74.53, 124.89 19.29 M3.64 171.86 C55.25 113.23, 109.4 50.5, 140.03 12.94 M3.06 171.21 C41.3 126.72, 78.43 85.26, 140.9 13.4 M2.6 185.84 C48.92 128.12, 101.27 68.02, 154.6 8.06 M0.34 186.01 C41.87 140.21, 83.41 93.5, 155.48 7.67 M2.43 197.62 C66.79 123.89, 127.3 54.48, 165.51 10.52 M3.14 196.27 C45.89 146.51, 88.79 96.21, 165.09 9.51 M4.59 205.65 C57.26 147.32, 106.08 87.5, 178.5 8.77 M4.12 206.62 C61.49 142.53, 119.3 76.63, 177.67 7.81 M7.47 215.81 C47.99 167.31, 91.62 120.38, 188.5 5.68 M6.76 216.98 C62.57 150.46, 121.42 84.45, 189.22 6.61 M7.02 225.62 C45.34 180.78, 87.76 134.92, 201.34 6.56 M8.36 226.99 C61.78 165.47, 114.72 105.24, 200.5 6.19 M10.12 238.14 C75.28 161.71, 141.17 83.38, 211.46 5.19 M10.47 236.46 C86.02 147.77, 164.84 58.02, 212.38 3.64 M11.94 246.29 C60.04 193.95, 108.8 136.42, 223.48 2.35 M12.03 246.45 C85.17 165.13, 155.94 82.49, 224.09 3.77 M14.39 255.09 C82.59 179.06, 146.73 105.98, 232.9 6.05 M16.39 254.65 C77.17 181.84, 140.23 109.82, 232.71 4.91 M20.44 264.31 C97.26 172.7, 176.39 82.81, 242.71 6.89 M18.71 263.2 C68.11 207.94, 116.01 152.57, 241.61 7.13 M21.44 270.59 C74.74 213.06, 127.32 153.38, 251.88 9.25 M22.45 271.14 C92.63 193.34, 162.84 113.67, 251.12 9.24 M25.53 279.11 C84.91 211.94, 142.21 147.5, 261.01 9.56 M26.77 278.94 C89.41 205.04, 151.93 134.05, 259.73 9.67 M30.33 286.04 C86.1 224.88, 140.03 162.04, 269.1 12.33 M29.58 287.32 C116.48 187.43, 201.95 88.93, 269.4 12.24 M34.63 295.26 C126.93 188.21, 218.25 79.29, 279.39 14.09 M32.97 295.09 C105.14 211.53, 177.23 128.66, 278.08 13.39 M39.78 301.76 C105.84 223.52, 173.8 146.61, 285.26 17.57 M38.84 300.91 C98.55 232.88, 157.77 164.87, 286.36 16.76 M43.84 308.24 C122.96 218.91, 199.98 128.32, 293.81 20.45 M44.09 307.77 C134.82 205.37, 224.95 102.89, 293.35 20.11 M49.4 313.8 C141.41 207.66, 235.19 103.07, 301.55 24.83 M49.14 313.68 C146.44 200.44, 243.23 88.43, 301.15 24.11 M54.63 318.33 C111.87 258.53, 163.64 197.01, 307.31 27.14 M55.56 318.88 C153.31 205.93, 251.76 93.7, 307.78 27.56 M62.19 323.55 C152.76 218.41, 244.98 111.89, 315.38 31.44 M61.34 325.11 C140.27 235.04, 218.24 144.77, 315.87 31.65 M66.12 331.27 C145.66 237.42, 227.18 145.09, 324.2 32.37 M66.27 330.81 C158.38 226.99, 249.4 121.98, 324.46 32.99 M72.98 336.78 C164.14 229.13, 257.32 121.88, 330.45 37.47 M72.46 335.56 C163.6 233.7, 253.75 130.42, 331.27 38.12 M79.66 339.38 C147.56 259.65, 218.07 180.22, 337.81 43 M79.3 340.55 C152.94 255.24, 228.11 168.98, 337.52 43.38 M86.95 345.07 C161.94 258.9, 236.37 171.54, 343.31 48.85 M85.94 344.96 C167.12 248.54, 250.58 152.75, 343.04 49.18 M93.42 349.29 C146.66 288.95, 198.48 230.28, 348.79 53.65 M92.88 349.95 C168.68 264.36, 242.75 178.18, 349.09 54.41 M99 354.32 C188.17 249.53, 276.98 146.56, 355.84 59.81 M99.18 353.46 C175.71 263.69, 252.09 174.85, 355.18 59.72 M106.84 358.13 C176.4 277.97, 244.59 200.85, 360.72 64.72 M106.16 358.1 C182.12 270.11, 257.26 183.79, 361.54 65.01 M113.61 361.74 C202.47 256.75, 293.66 153.92, 367.9 70.43 M112.98 362.77 C164.77 302.81, 216.13 242.27, 367.03 70.31 M118.3 367.42 C186.78 288.42, 255.08 209.84, 371.94 76.3 M119.17 367.15 C199.88 276.95, 278.43 186.88, 371.55 77.13 M128.6 369.77 C223.45 260.93, 318.41 150.46, 377.42 84.3 M128.03 369.15 C180.02 307.49, 234.06 245.72, 376.71 83.67 M135.49 372.36 C194.7 305.88, 252.89 236.9, 380.34 89.78 M136.16 371.57 C235.64 260.73, 332.83 148.76, 380.87 90.34 M144.41 375.03 C230.45 276.97, 314.65 181.26, 385.81 97.11 M145 374.58 C235.08 272.79, 324.48 169.66, 385.47 96.82 M153.69 375.96 C218.34 302.85, 284.28 227.41, 390.62 103.27 M153.13 377.16 C214.78 304.34, 277.29 232.52, 390.49 104.28 M161.66 380.06 C210.39 324.62, 260.81 265.4, 394.97 110.51 M161.8 379.72 C247.09 282.5, 331.63 185.96, 395.86 110.15 M170.25 381.77 C240.75 302.04, 307.57 223.38, 400.21 116.13 M171.73 381.31 C234.05 307.1, 299.59 233.34, 401.03 117.22 M181.28 380.18 C264.57 285.76, 349.34 189.19, 403.87 125.81 M181.11 381.56 C256.08 294.07, 329.5 209.23, 403.17 125.98 M192.13 382.77 C253.05 309.98, 314.77 238.5, 406.28 135.11 M191.19 381.89 C253.06 312.12, 313.31 242.02, 406.11 134.51 M200.82 384.29 C259.15 316.67, 316.41 249.45, 409.54 144.93 M200.61 382.36 C261.22 309.54, 323.27 238.02, 409.36 143.01 M211.35 382.97 C261.86 322.54, 314.75 262.25, 411.46 153.6 M211.01 384.2 C279.15 305.35, 347.77 226.53, 412.18 153.26 M222.1 384.47 C265.01 336.1, 307.56 284.66, 411.44 165.29 M221.83 383.65 C281.34 316.19, 341.17 247.35, 413.44 163.39 M228.57 387.47 C279.71 328.1, 334.92 268.65, 412.58 175.86 M229.83 387.06 C268.85 343.31, 306.47 299.11, 412.66 176.04 M243.29 385.84 C300.19 320.06, 358.46 252.52, 414.68 186.04 M241.99 384.7 C294.18 325.69, 345.8 267.07, 413.07 187.22 M254.55 382.68 C296.41 333.47, 336.98 288.66, 413.72 199.33 M255.35 381.79 C298.61 331.99, 342.18 283.11, 413.27 199.51 M267.96 380.24 C326.3 315.03, 385.09 248.23, 413.13 209.68 M268.01 378.11 C300.74 341.4, 334.08 303.72, 414.18 211.11 M282.75 372.46 C328.87 323.11, 373.48 272.22, 418.49 217.45 M283.46 373.04 C336.41 312.75, 388.08 253.48, 417.36 219.37 M300.13 367.2 C326.73 335.74, 350.49 308.73, 411.52 236.91 M302.25 365.88 C336.59 325.17, 372.69 283.76, 412.77 236.94 M321.68 356.44 C345.82 330.12, 367.03 299.66, 398.25 265.26 M319.42 355.39 C340.8 330.96, 362.28 308.27, 399.24 265.71" stroke="#ced4da" stroke-width="1" fill="none"></path><path d="M109.38 22.97 C123.12 12.68, 143.2 8.73, 161.48 4.84 C179.76 0.95, 200.32 -1.16, 219.05 -0.35 C237.78 0.46, 256.27 4.07, 273.87 9.71 C291.46 15.35, 309.25 23.64, 324.61 33.48 C339.98 43.32, 354.13 55.69, 366.07 68.78 C378 81.86, 388.67 96.22, 396.24 112 C403.82 127.79, 408.61 146.35, 411.51 163.49 C414.4 180.63, 415.76 198.03, 413.62 214.84 C411.47 231.65, 405.94 248.42, 398.67 264.34 C391.4 280.26, 381.61 296.62, 369.99 310.37 C358.38 324.11, 344.01 336.8, 328.96 346.81 C313.9 356.82, 297.22 364.53, 279.65 370.4 C262.09 376.28, 242.15 380.78, 223.57 382.09 C205 383.39, 186.54 381.61, 168.21 378.24 C149.89 374.88, 130.49 369.64, 113.62 361.9 C96.75 354.16, 80.72 343.21, 66.98 331.82 C53.24 320.43, 40.77 308.13, 31.19 293.57 C21.61 279, 14.67 260.96, 9.48 244.42 C4.3 227.89, 0.5 211.28, 0.09 194.34 C-0.33 177.4, 2.21 159.57, 6.99 142.77 C11.77 125.96, 19.35 108.38, 28.77 93.52 C38.18 78.66, 49.33 65.83, 63.48 53.6 C77.63 41.38, 104.52 25.3, 113.67 20.17 C122.81 15.03, 116.99 19.85, 118.36 22.78 M297.13 17.88 C314.28 22.06, 330.03 35.92, 343.84 47.47 C357.64 59.02, 369.73 72.63, 379.98 87.16 C390.23 101.7, 399.66 118.17, 405.32 134.68 C410.99 151.19, 413.49 168.99, 413.96 186.2 C414.44 203.4, 412.48 221.51, 408.16 237.91 C403.85 254.32, 397.21 269.73, 388.09 284.64 C378.97 299.56, 366.79 315.35, 353.45 327.42 C340.12 339.49, 324.43 348.84, 308.1 357.05 C291.78 365.27, 273.49 372.49, 255.5 376.71 C237.51 380.92, 218.9 382.94, 200.17 382.35 C181.44 381.76, 161.11 378.58, 143.11 373.18 C125.1 367.79, 107.44 359.45, 92.14 349.98 C76.84 340.51, 63.45 329.53, 51.31 316.35 C39.17 303.18, 27.38 286.41, 19.3 270.93 C11.23 255.45, 6.03 240.48, 2.87 223.49 C-0.28 206.51, -1.71 186.48, 0.38 169.03 C2.46 151.58, 8.22 134.58, 15.38 118.8 C22.53 103.01, 32.16 87.88, 43.31 74.32 C54.45 60.77, 67.5 47.94, 82.24 37.46 C96.98 26.98, 113.98 17.35, 131.73 11.44 C149.47 5.52, 170.08 3.31, 188.71 1.98 C207.34 0.65, 225.49 0.76, 243.48 3.47 C261.48 6.17, 288.18 14.9, 296.67 18.21 C305.15 21.53, 295.92 20.37, 294.4 23.36" stroke="#1e1e1e" stroke-width="2" fill="none"></path></g><g stroke-linecap="round"><g transform="translate(282.2586516773865 415.5101469282391) rotate(0 422.1558659264077 111.47894024809636)"><path d="M0.35 -0.17 C140.83 37.1, 702.17 185.77, 842.91 223.27 M-0.93 -1.31 C139.94 36.11, 704.32 186.91, 845.24 224.27" stroke="#1e1e1e" stroke-width="2" fill="none"></path></g><g transform="translate(282.2586516773865 415.5101469282391) rotate(0 422.1558659264077 111.47894024809636)"><path d="M815.08 225.74 C822.6 227.95, 834.21 225.71, 845.21 223.07 M816.31 227.07 C824.2 225.42, 833.49 225.65, 844.56 223.36" stroke="#1e1e1e" stroke-width="2" fill="none"></path></g><g transform="translate(282.2586516773865 415.5101469282391) rotate(0 422.1558659264077 111.47894024809636)"><path d="M820.36 205.91 C826.24 214.08, 836.26 217.8, 845.21 223.07 M821.59 207.24 C828.02 211.49, 835.74 217.63, 844.56 223.36" stroke="#1e1e1e" stroke-width="2" fill="none"></path></g></g><mask></mask><g stroke-linecap="round"><g transform="translate(1535.3732866566445 675.8733197320925) rotate(0 235.39162505870354 -46.37806992742563)"><path d="M-0.45 -0.32 C78.2 -15.37, 392.66 -75.48, 471.23 -90.7 M1.51 -1.54 C80.03 -16.89, 392.01 -77.62, 470.07 -92.43" stroke="#1e1e1e" stroke-width="2" fill="none"></path></g><g transform="translate(1535.3732866566445 675.8733197320925) rotate(0 235.39162505870354 -46.37806992742563)"><path d="M443.79 -77.7 C451.88 -81.72, 456.62 -84.73, 468.24 -93.41 M444.59 -76.17 C455.09 -82.04, 464.04 -89.73, 470.48 -92" stroke="#1e1e1e" stroke-width="2" fill="none"></path></g><g transform="translate(1535.3732866566445 675.8733197320925) rotate(0 235.39162505870354 -46.37806992742563)"><path d="M439.91 -97.86 C448.87 -96.96, 454.56 -95.06, 468.24 -93.41 M440.71 -96.33 C452.78 -94.32, 463.25 -94.14, 470.48 -92" stroke="#1e1e1e" stroke-width="2" fill="none"></path></g></g><mask></mask><g stroke-linecap="round"><g transform="translate(1333.24115305989 921.3194819567233) rotate(0 -0.18067744912127637 264.8506584404851)"><path d="M-1.01 -0.87 C-1 87.26, 0.24 440.85, 0.59 529.16 M0.65 1.29 C0.52 89.56, -0.09 442.44, -0.04 530.57" stroke="#1e1e1e" stroke-width="2" fill="none"></path></g><g transform="translate(1333.24115305989 921.3194819567233) rotate(0 -0.18067744912127637 264.8506584404851)"><path d="M-11.73 503.36 C-7.07 513.96, -3.85 522.3, 0.33 532.2 M-10.57 501.84 C-8.83 509.17, -5.72 514.42, -0.23 530.58" stroke="#1e1e1e" stroke-width="2" fill="none"></path></g><g transform="translate(1333.24115305989 921.3194819567233) rotate(0 -0.18067744912127637 264.8506584404851)"><path d="M8.79 503.38 C6.42 513.8, 2.62 522.14, 0.33 532.2 M9.95 501.86 C7.2 509.15, 5.82 514.4, -0.23 530.58" stroke="#1e1e1e" stroke-width="2" fill="none"></path></g></g><mask></mask><g stroke-linecap="round"><g transform="translate(1241.8004259565962 1826.1014132945784) rotate(0 -53.566218764854284 102.86472103302862)"><path d="M-0.18 -1.17 C-17.67 32.98, -88.42 171.38, -105.96 205.91 M-1.73 0.82 C-19.3 35.61, -89.59 172.57, -106.95 206.9" stroke="#1e1e1e" stroke-width="2" fill="none"></path></g><g transform="translate(1241.8004259565962 1826.1014132945784) rotate(0 -53.566218764854284 102.86472103302862)"><path d="M-105.25 176.99 C-105.55 184.32, -106.21 189.82, -107.81 206.58 M-102.99 177.86 C-103.83 186.21, -105.85 195.12, -107.94 207.09" stroke="#1e1e1e" stroke-width="2" fill="none"></path></g><g transform="translate(1241.8004259565962 1826.1014132945784) rotate(0 -53.566218764854284 102.86472103302862)"><path d="M-86.96 186.31 C-91.3 191.6, -95.91 195.09, -107.81 206.58 M-84.71 187.19 C-91.22 192.51, -98.83 198.58, -107.94 207.09" stroke="#1e1e1e" stroke-width="2" fill="none"></path></g></g><mask></mask><g stroke-linecap="round"><g transform="translate(1525.7479469615612 1527.715882746988) rotate(0 163.60611346790733 -110.41999208686343)"><path d="M1.16 1.08 C55.62 -35.81, 272.55 -184.85, 326.91 -221.92 M0.3 0.6 C54.56 -36.08, 271.4 -183.9, 325.78 -220.66" stroke="#1e1e1e" stroke-width="2" fill="none"></path></g><g transform="translate(1525.7479469615612 1527.715882746988) rotate(0 163.60611346790733 -110.41999208686343)"><path d="M310.02 -196.92 C312.92 -204.02, 319.34 -209.95, 325.23 -222.28 M308.36 -195.97 C312.89 -204.42, 319.19 -210.79, 325.59 -221.39" stroke="#1e1e1e" stroke-width="2" fill="none"></path></g><g transform="translate(1525.7479469615612 1527.715882746988) rotate(0 163.60611346790733 -110.41999208686343)"><path d="M298.49 -213.9 C304.9 -215.81, 314.91 -216.45, 325.23 -222.28 M296.83 -212.94 C304.66 -216.21, 314.43 -217.47, 325.59 -221.39" stroke="#1e1e1e" stroke-width="2" fill="none"></path></g></g><mask></mask><g transform="translate(68.35546214629198 41.945861107756514) rotate(0 90.46802716119612 65.36707292947358)"><text x="0" y="0" font-family="Virgil, Segoe UI Emoji" font-size="104.5873166871577px" fill="#1e1e1e" text-anchor="start" style="white-space: pre;" direction="ltr" dominant-baseline="text-before-edge"></text></g><g transform="translate(657.0720454178042 10) rotate(0 45.234013580598 65.36707292947352)"><text x="0" y="0" font-family="Virgil, Segoe UI Emoji" font-size="104.58731668715765px" fill="#1e1e1e" text-anchor="start" style="white-space: pre;" direction="ltr" dominant-baseline="text-before-edge"></text></g></svg>