<svg version="1.1" xmlns="http://www.w3.org/2000/svg" viewBox="0 0 2920.2366758003873 1382.6891657606814" width="5840.473351600775" height="2765.3783315213627">
  <!-- svg-source:excalidraw -->
  
  <defs>
    <style class="style-fonts">
      @font-face {
        font-family: "Virgil";
        src: url("https://excalidraw.com/Virgil.woff2");
      }
      @font-face {
        font-family: "Cascadia";
        src: url("https://excalidraw.com/Cascadia.woff2");
      }
    </style>
    
  </defs>
  <rect x="0" y="0" width="2920.2366758003873" height="1382.6891657606814" fill="#ffffff"></rect><g stroke-linecap="round" transform="translate(10 427.24818703822643) rotate(0 329.21605509085487 68.73741809589274)"><path d="M7.86 8.16 C7.86 8.16, 7.86 8.16, 7.86 8.16 M7.86 8.16 C7.86 8.16, 7.86 8.16, 7.86 8.16 M4.85 36.01 C15.5 26.76, 24.37 11.42, 34.37 2.05 M4.85 36.01 C16.49 21.87, 28.5 10.36, 34.37 2.05 M4.46 60.85 C20.67 46.47, 37.89 29.98, 55.63 1.98 M4.46 60.85 C18.27 44.14, 31.96 30.93, 55.63 1.98 M4.72 84.93 C22.25 66.78, 41.86 42.54, 76.89 1.91 M4.72 84.93 C18.93 67.28, 37.33 48.87, 76.89 1.91 M4.33 109.77 C25.65 78.94, 51.68 50.48, 98.15 1.85 M4.33 109.77 C27.45 83.14, 51.04 54.07, 98.15 1.85 M8.54 129.32 C37.8 95.91, 72.46 54.21, 119.41 1.78 M8.54 129.32 C47.27 84.74, 87.33 43.1, 119.41 1.78 M23.24 136.8 C61.25 89.1, 107.47 37.38, 140.02 2.46 M23.24 136.8 C59.38 94.7, 93.76 51.82, 140.02 2.46 M35.97 146.54 C87 91.36, 131.06 35.65, 161.28 2.39 M35.97 146.54 C74.82 101.7, 114.52 55.04, 161.28 2.39 M57.23 146.47 C103.98 101.76, 147.12 47.02, 182.54 2.32 M57.23 146.47 C98.31 96.63, 145.2 45.77, 182.54 2.32 M77.83 147.16 C119.95 95.6, 164.89 52.2, 203.8 2.26 M77.83 147.16 C119.66 102.41, 162.06 52.03, 203.8 2.26 M99.09 147.09 C142.86 92.12, 192.06 43.96, 225.06 2.19 M99.09 147.09 C151.5 89.12, 203.36 28.15, 225.06 2.19 M120.35 147.02 C160.75 97.84, 203.66 52.78, 246.32 2.12 M120.35 147.02 C146.09 116.67, 173.32 87.01, 246.32 2.12 M141.61 146.95 C171.82 113.92, 197.33 77.15, 267.58 2.05 M141.61 146.95 C167.53 115.6, 196.38 82.56, 267.58 2.05 M162.87 146.88 C190.29 114.72, 224.17 77.08, 288.84 1.98 M162.87 146.88 C209.32 88.58, 258.46 32.2, 288.84 1.98 M184.13 146.81 C215.17 118.04, 235.87 85.37, 310.1 1.91 M184.13 146.81 C223.51 104.35, 259.9 61.21, 310.1 1.91 M205.39 146.75 C244.32 105.58, 278.99 56.46, 330.7 2.6 M205.39 146.75 C250.43 94, 295.89 43.79, 330.7 2.6 M226.65 146.68 C268.41 106.03, 309.71 55.53, 351.96 2.53 M226.65 146.68 C251.02 113.56, 279 79.8, 351.96 2.53 M247.91 146.61 C284.7 107.8, 323.98 63.94, 373.22 2.46 M247.91 146.61 C295.53 93.33, 343.25 36.68, 373.22 2.46 M268.52 147.29 C304.28 107.92, 340.12 67.94, 394.48 2.39 M268.52 147.29 C308.92 100.79, 351.61 54.2, 394.48 2.39 M289.78 147.22 C323.29 115.98, 353.88 78.81, 415.74 2.32 M289.78 147.22 C338.96 91.39, 384.38 39.39, 415.74 2.32 M311.04 147.16 C357.72 93.85, 408.42 33.41, 437 2.25 M311.04 147.16 C338.85 112.48, 370.1 78.39, 437 2.25 M332.3 147.09 C380.42 93.59, 423.69 35, 458.26 2.18 M332.3 147.09 C363.59 111.61, 399.82 70.57, 458.26 2.18 M353.56 147.02 C398.36 91.16, 447.47 37.88, 479.52 2.11 M353.56 147.02 C400.42 97.9, 442.37 49.93, 479.52 2.11 M374.82 146.95 C409.37 114.8, 441.13 78.05, 500.13 2.8 M374.82 146.95 C401.57 119.13, 430.01 87.71, 500.13 2.8 M396.08 146.88 C433.52 108.59, 460.1 72.08, 521.39 2.73 M396.08 146.88 C436.93 99.21, 476.18 51.9, 521.39 2.73 M417.34 146.81 C459.01 104.57, 498.7 65.48, 542.65 2.66 M417.34 146.81 C461.81 94.6, 508.91 38.54, 542.65 2.66 M438.6 146.74 C469.8 118.21, 497.77 84.35, 563.91 2.59 M438.6 146.74 C486.93 93.12, 534.9 35.7, 563.91 2.59 M459.2 147.43 C501.69 103.67, 539.54 56.23, 585.17 2.52 M459.2 147.43 C503.85 92.33, 550.49 42.06, 585.17 2.52 M480.46 147.36 C519.31 103.16, 551.3 63.58, 606.43 2.45 M480.46 147.36 C514 110.59, 548.44 74.47, 606.43 2.45 M501.72 147.29 C530.4 113.01, 555.05 79.4, 627.69 2.38 M501.72 147.29 C553.73 89.75, 602.6 33.35, 627.69 2.38 M522.98 147.22 C560.81 103.29, 598.72 62.32, 643.7 8.35 M522.98 147.22 C545.47 117.51, 572.45 88.77, 643.7 8.35 M544.24 147.15 C578.31 103.9, 611.51 69.96, 659.05 15.08 M544.24 147.15 C576.5 105.66, 611.87 64.67, 659.05 15.08 M565.5 147.08 C601.48 101.73, 644.25 58.76, 665.88 31.61 M565.5 147.08 C586.35 125.27, 607.2 102.9, 665.88 31.61 M586.76 147.01 C608.62 120, 626.42 98.91, 666.15 55.69 M586.76 147.01 C615.98 115.35, 647.54 81.38, 666.15 55.69 M608.02 146.94 C618.14 134.96, 633.18 117.92, 665.76 80.53 M608.02 146.94 C628.56 126.51, 648.07 101.34, 665.76 80.53 M632.57 143.1 C636.47 138.76, 642.68 130.74, 658.15 113.67 M632.57 143.1 C639.31 136.96, 646.09 127.33, 658.15 113.67" stroke="#a5d8ff" stroke-width="2" fill="none"></path><path d="M32 0 M32 0 C252.6 -0.93, 469.5 -0.58, 626.43 0 M32 0 C171.82 4.01, 311.93 4.3, 626.43 0 M626.43 0 C647.29 -1.59, 660.8 9.11, 658.43 32 M626.43 0 C651.04 -0.53, 654.96 8.21, 658.43 32 M658.43 32 C656.47 62.28, 655.32 90.11, 658.43 105.47 M658.43 32 C657.71 53.04, 657.96 75.15, 658.43 105.47 M658.43 105.47 C657.38 129.69, 647.45 136.97, 626.43 137.47 M658.43 105.47 C654.79 128.3, 649.4 138.42, 626.43 137.47 M626.43 137.47 C479.67 133.01, 335.2 133.57, 32 137.47 M626.43 137.47 C419.43 132.81, 213.02 133.86, 32 137.47 M32 137.47 C13.37 139.86, 2.29 126.9, 0 105.47 M32 137.47 C11.88 133.15, 0.93 126.75, 0 105.47 M0 105.47 C-4.12 82.72, -4.19 60.27, 0 32 M0 105.47 C-0.96 87.76, 1.93 67.48, 0 32 M0 32 C0.43 7.91, 8.82 2.6, 32 0 M0 32 C-1.05 14.7, 14.77 -2.37, 32 0" stroke="#1e1e1e" stroke-width="4" fill="none"></path></g><g stroke-linecap="round" transform="translate(945.7936217967156 10) rotate(0 104.91500656741516 681.3445828803407)"><path d="M32 0 M32 0 C91.26 -1.56, 144.31 -4.05, 177.83 0 M32 0 C82.28 -1.7, 137.04 -3.65, 177.83 0 M177.83 0 C195.35 -1.6, 212.4 7.9, 209.83 32 M177.83 0 C200.51 -1.34, 213.07 10.43, 209.83 32 M209.83 32 C218.78 353.95, 216.93 676.44, 209.83 1330.69 M209.83 32 C210.84 478.3, 210.64 924.69, 209.83 1330.69 M209.83 1330.69 C207.38 1354.1, 200.29 1366.64, 177.83 1362.69 M209.83 1330.69 C206.72 1355.32, 199.64 1366.45, 177.83 1362.69 M177.83 1362.69 C121.81 1363.17, 64.53 1360.38, 32 1362.69 M177.83 1362.69 C122.04 1360.81, 65.29 1360.96, 32 1362.69 M32 1362.69 C13.15 1365.82, -2.59 1352.63, 0 1330.69 M32 1362.69 C9.29 1363.86, 0.35 1348.46, 0 1330.69 M0 1330.69 C8.09 1018.2, 8.63 706.75, 0 32 M0 1330.69 C6.27 966.38, 6.77 603.18, 0 32 M0 32 C0.37 14.57, 14.31 -0.92, 32 0 M0 32 C-2.28 7.73, 6.25 -0.12, 32 0" stroke="#1e1e1e" stroke-width="4" fill="none"></path></g><g stroke-linecap="round"><g transform="translate(948.2054610281502 178.82874620043845) rotate(0 102.22059254624949 2.8216666781053164)"><path d="M0.61 2.09 C34.82 2.68, 172.17 4.9, 206.94 5.03 M-2.5 0.75 C31.14 0.49, 169.28 0.53, 204.44 1.44" stroke="#1e1e1e" stroke-width="4" fill="none"></path></g></g><mask></mask><g stroke-linecap="round"><g transform="translate(948.2054610281502 335.59829624370263) rotate(0 100.58067603235605 2.8389425400549726)"><path d="M-2.54 -1.89 C31.77 -1.17, 169.07 2.76, 203.7 4.25 M1.27 3.26 C35.51 4.4, 168.13 7.65, 202.07 7.56" stroke="#1e1e1e" stroke-width="4" fill="none"></path></g></g><mask></mask><g stroke-linecap="round"><g transform="translate(948.2054610281502 487.54416782409703) rotate(0 104.18603831645689 5.365546537017053)"><path d="M-0.05 2.12 C35.65 3.84, 176.26 9.33, 211.9 9.92 M-3.52 0.81 C31.98 1.84, 173.42 5.19, 209.47 6.37" stroke="#1e1e1e" stroke-width="4" fill="none"></path></g></g><mask></mask><g stroke-linecap="round"><g transform="translate(948.2054610281502 653.9610747931008) rotate(0 102.07853440596995 2.6275151454242405)"><path d="M-1.62 0.39 C32.88 1.59, 171.24 6.8, 205.78 7.12 M2.69 -1.87 C37 -1.4, 170.39 2.36, 203.96 3.36" stroke="#1e1e1e" stroke-width="4" fill="none"></path></g></g><mask></mask><g stroke-linecap="round"><g transform="translate(950.6173002595851 810.730624836365) rotate(0 97.78342461623413 1.8940955359074678)"><path d="M-2.1 -1.56 C30.39 -0.66, 164.88 3.87, 197.67 5.34 M1.95 3.77 C34.03 3.76, 164.94 0.72, 196.69 0.62" stroke="#1e1e1e" stroke-width="4" fill="none"></path></g></g><mask></mask><g stroke-linecap="round"><g transform="translate(945.7936217967156 955.4409787224549) rotate(0 107.4843611384945 3.691761361691647)"><path d="M-0.12 2.57 C36.6 2.69, 182.55 2.67, 218.6 3.16 M-3.63 1.5 C33.01 3.16, 180.93 4.64, 217.19 5.88" stroke="#1e1e1e" stroke-width="4" fill="none"></path></g></g><mask></mask><g stroke-linecap="round"><g transform="translate(950.6173002595851 1090.5039756828057) rotate(0 102.83911011486589 -0.43625893143450867)"><path d="M1.33 -2.8 C36.24 -2.83, 173.32 -2.91, 207.07 -2.22 M-1.39 1.85 C33.54 2.29, 172.16 1.09, 205.95 0.2" stroke="#1e1e1e" stroke-width="4" fill="none"></path></g></g><mask></mask><g stroke-linecap="round"><g transform="translate(950.6173002595851 1235.2143295688957) rotate(0 103.89545707204437 0.8379988638478153)"><path d="M1.9 0.41 C36.8 1.39, 173.61 2.97, 208.3 3.51 M-0.51 -1.83 C34.19 -1.5, 171.51 -1, 206.55 -0.91" stroke="#1e1e1e" stroke-width="4" fill="none"></path></g></g><mask></mask><g stroke-linecap="round" transform="translate(13.617758847152118 1031.4139145126521) rotate(0 329.21605509085487 68.73741809589274)"><path d="M7.86 8.16 C7.86 8.16, 7.86 8.16, 7.86 8.16 M7.86 8.16 C7.86 8.16, 7.86 8.16, 7.86 8.16 M4.85 36.01 C9.92 27.94, 19.6 16.68, 34.37 2.05 M4.85 36.01 C15.7 27.7, 23.39 18.07, 34.37 2.05 M4.46 60.85 C16.03 44.45, 31.96 31.88, 55.63 1.98 M4.46 60.85 C20.02 41.31, 36.54 23.25, 55.63 1.98 M4.72 84.93 C26.04 64.62, 50.24 38.6, 76.89 1.91 M4.72 84.93 C19.49 67.88, 32.99 49.29, 76.89 1.91 M4.33 109.77 C26.11 83.3, 49.16 61.29, 98.15 1.85 M4.33 109.77 C34.72 73.39, 61.15 42.95, 98.15 1.85 M8.54 129.32 C34.03 99.82, 55.3 78.49, 119.41 1.78 M8.54 129.32 C35.62 97.87, 59.48 67.15, 119.41 1.78 M23.24 136.8 C48 106.01, 70.16 79.17, 140.02 2.46 M23.24 136.8 C51.33 103.39, 79.79 74.98, 140.02 2.46 M35.97 146.54 C71.49 107.17, 102.28 67.45, 161.28 2.39 M35.97 146.54 C80.14 95.46, 123.44 45.6, 161.28 2.39 M57.23 146.47 C99.15 100.85, 137.64 60.33, 182.54 2.32 M57.23 146.47 C88.9 111.22, 121.72 74.52, 182.54 2.32 M77.83 147.16 C109.12 110.09, 138.32 79.32, 203.8 2.26 M77.83 147.16 C116.75 104.85, 150.13 59.62, 203.8 2.26 M99.09 147.09 C127.16 110.67, 160.92 74.69, 225.06 2.19 M99.09 147.09 C129.15 112.39, 157.52 78.49, 225.06 2.19 M120.35 147.02 C151.9 110.45, 189.18 66.73, 246.32 2.12 M120.35 147.02 C156.28 102.04, 193.92 61.74, 246.32 2.12 M141.61 146.95 C190.69 89.26, 245.92 28.02, 267.58 2.05 M141.61 146.95 C187.6 94.85, 236.5 37.48, 267.58 2.05 M162.87 146.88 C212.07 97.34, 259.16 42.01, 288.84 1.98 M162.87 146.88 C192.87 117.37, 220.8 85.84, 288.84 1.98 M184.13 146.81 C214.39 109.87, 248.93 70.03, 310.1 1.91 M184.13 146.81 C210.92 115.84, 238.98 80.39, 310.1 1.91 M205.39 146.75 C247.33 98.28, 287.18 54.19, 330.7 2.6 M205.39 146.75 C248.97 102.28, 288.62 59.4, 330.7 2.6 M226.65 146.68 C269 96.04, 307.98 47.62, 351.96 2.53 M226.65 146.68 C257.73 110.67, 287.82 74.15, 351.96 2.53 M247.91 146.61 C286.14 95.76, 332.66 49.41, 373.22 2.46 M247.91 146.61 C283.31 102.7, 322.08 60.51, 373.22 2.46 M268.52 147.29 C306.5 96.76, 345.83 50.41, 394.48 2.39 M268.52 147.29 C291.31 118.9, 316.56 88.5, 394.48 2.39 M289.78 147.22 C321.72 107.02, 359.8 67.79, 415.74 2.32 M289.78 147.22 C322.93 105.19, 357.65 68.43, 415.74 2.32 M311.04 147.16 C356.48 93.98, 398.06 43.81, 437 2.25 M311.04 147.16 C337.36 113.15, 367.5 81.82, 437 2.25 M332.3 147.09 C359.51 113.29, 392.47 77.86, 458.26 2.18 M332.3 147.09 C380.1 89.74, 430.27 34.09, 458.26 2.18 M353.56 147.02 C376.63 113.41, 406.23 88.33, 479.52 2.11 M353.56 147.02 C398.31 91.94, 445.3 38.07, 479.52 2.11 M374.82 146.95 C404.46 110.22, 445.31 70.81, 500.13 2.8 M374.82 146.95 C409.08 110.26, 443.2 70.81, 500.13 2.8 M396.08 146.88 C419.03 111.25, 451.61 79.75, 521.39 2.73 M396.08 146.88 C443.49 94.75, 492.85 40.03, 521.39 2.73 M417.34 146.81 C464.18 102.92, 501.45 52.78, 542.65 2.66 M417.34 146.81 C453.43 108.04, 491.62 64.91, 542.65 2.66 M438.6 146.74 C475.8 113.79, 507.73 72.73, 563.91 2.59 M438.6 146.74 C483.06 95.43, 529.92 42.45, 563.91 2.59 M459.2 147.43 C506.49 97.22, 542.79 55.72, 585.17 2.52 M459.2 147.43 C499.3 103.59, 535.01 59.12, 585.17 2.52 M480.46 147.36 C516.55 106.96, 552.76 68.14, 606.43 2.45 M480.46 147.36 C529.37 96.53, 574.94 41.8, 606.43 2.45 M501.72 147.29 C534.03 112.98, 560.2 79.1, 627.69 2.38 M501.72 147.29 C548.93 96.06, 599.21 40.28, 627.69 2.38 M522.98 147.22 C565.79 101.79, 612.77 49.04, 643.7 8.35 M522.98 147.22 C562.93 100.11, 601.23 56.94, 643.7 8.35 M544.24 147.15 C571.26 113.24, 596.47 87.6, 659.05 15.08 M544.24 147.15 C566.22 120.83, 589.22 93.23, 659.05 15.08 M565.5 147.08 C596.31 103.71, 638.16 62.18, 665.88 31.61 M565.5 147.08 C600.94 107.91, 635.85 67.21, 665.88 31.61 M586.76 147.01 C609.68 121.21, 630.68 92.76, 666.15 55.69 M586.76 147.01 C608.62 119.63, 632.7 93.19, 666.15 55.69 M608.02 146.94 C633.79 117.18, 651.63 96.05, 665.76 80.53 M608.02 146.94 C621.95 134.33, 632.64 118.75, 665.76 80.53 M632.57 143.1 C640.64 137.97, 643.57 123.8, 658.15 113.67 M632.57 143.1 C638.75 135.55, 645.65 128.99, 658.15 113.67" stroke="#ffc9c9" stroke-width="2" fill="none"></path><path d="M32 0 M32 0 C209.22 -1.87, 386.3 -2.41, 626.43 0 M32 0 C203.87 1.44, 376.9 1.6, 626.43 0 M626.43 0 C645.43 3.59, 660.92 9.17, 658.43 32 M626.43 0 C648.67 4.06, 662.23 13.6, 658.43 32 M658.43 32 C658.33 51.4, 661 68.78, 658.43 105.47 M658.43 32 C657.48 58.73, 660.65 84.54, 658.43 105.47 M658.43 105.47 C658.7 130.48, 650.36 137.93, 626.43 137.47 M658.43 105.47 C662.7 126.89, 643.72 140.83, 626.43 137.47 M626.43 137.47 C392.59 132.84, 156.81 132.35, 32 137.47 M626.43 137.47 C463.46 138.47, 300.15 138.86, 32 137.47 M32 137.47 C13.14 136.14, -3.79 125.06, 0 105.47 M32 137.47 C13.46 135.06, 0.39 124.83, 0 105.47 M0 105.47 C-1.42 76.06, -3.39 49.38, 0 32 M0 105.47 C-2.46 78.87, -0.1 51.24, 0 32 M0 32 C2.74 8.23, 14.25 -3.26, 32 0 M0 32 C-2.63 14.05, 14.06 1.02, 32 0" stroke="#1e1e1e" stroke-width="4" fill="none"></path></g><g stroke-linecap="round"><g transform="translate(668.4321101817097 487.54416782409703) rotate(0 139.91442125402608 345.5650464289194)"><path d="M-0.55 1.35 C46.77 115.84, 236.9 573.11, 284.13 687.71 M-4.3 -0.39 C42.82 114.55, 235.34 577.42, 282.94 691.52" stroke="#1e1e1e" stroke-width="4" fill="none"></path></g><g transform="translate(668.4321101817097 487.54416782409703) rotate(0 139.91442125402608 345.5650464289194)"><path d="M264.56 672.21 C269.44 677.12, 277.37 686.19, 279.54 689.04 M263.27 669.94 C268.21 678.14, 277.96 685.28, 283.8 691.86" stroke="#1e1e1e" stroke-width="4" fill="none"></path></g><g transform="translate(668.4321101817097 487.54416782409703) rotate(0 139.91442125402608 345.5650464289194)"><path d="M283.51 664.32 C282.63 671.57, 284.77 683.06, 279.54 689.04 M282.21 662.06 C279.87 672.89, 282.49 682.99, 283.8 691.86" stroke="#1e1e1e" stroke-width="4" fill="none"></path></g></g><mask></mask><g stroke-linecap="round"><g transform="translate(673.2557886445793 1117.4238977173377) rotate(0 135.70753365136068 -278.9358179820017)"><path d="M1.33 0.7 C46.82 -92.79, 228.2 -465.45, 272.81 -558.57 M-1.39 -1.39 C43.97 -93.41, 227.37 -463.89, 272.02 -556.33" stroke="#1e1e1e" stroke-width="4" fill="none"></path></g><g transform="translate(673.2557886445793 1117.4238977173377) rotate(0 135.70753365136068 -278.9358179820017)"><path d="M269.84 -522.67 C265.62 -536.99, 267.34 -548.12, 269.05 -556.79 M268.79 -526.32 C270.62 -533.35, 271.56 -540.44, 272.8 -556.53" stroke="#1e1e1e" stroke-width="4" fill="none"></path></g><g transform="translate(673.2557886445793 1117.4238977173377) rotate(0 135.70753365136068 -278.9358179820017)"><path d="M251.41 -531.7 C252.81 -543.52, 259.98 -551.98, 269.05 -556.79 M250.36 -535.35 C256.68 -540.03, 262.03 -544.95, 272.8 -556.53" stroke="#1e1e1e" stroke-width="4" fill="none"></path></g></g><mask></mask><g stroke-linecap="round" transform="translate(1381.1306030707028 476.6908912826407) rotate(0 329.2160550908549 68.73741809589274)"><path d="M7.86 8.16 C7.86 8.16, 7.86 8.16, 7.86 8.16 M7.86 8.16 C7.86 8.16, 7.86 8.16, 7.86 8.16 M4.85 36.01 C14.65 22.83, 25.91 7.06, 34.37 2.05 M4.85 36.01 C11.79 28.53, 21.35 19.62, 34.37 2.05 M4.46 60.85 C18.37 43.74, 34.56 25.46, 55.63 1.98 M4.46 60.85 C23.51 39.2, 43.06 17.17, 55.63 1.98 M4.72 84.93 C27.37 63.35, 51.83 38.28, 76.89 1.91 M4.72 84.93 C28.89 62.21, 47.43 34.26, 76.89 1.91 M4.33 109.77 C34.34 81.11, 56.61 47.81, 98.15 1.85 M4.33 109.77 C22.49 85.68, 44.86 61.28, 98.15 1.85 M8.54 129.32 C41.76 85.13, 83.46 49.79, 119.41 1.78 M8.54 129.32 C38.1 93.47, 68.95 56.4, 119.41 1.78 M23.24 136.8 C58.28 87.89, 94.23 46.39, 140.02 2.46 M23.24 136.8 C55.45 100.91, 85.46 62.65, 140.02 2.46 M35.97 146.54 C68.51 102.09, 102.15 62.46, 161.28 2.39 M35.97 146.54 C66.01 113, 92.92 81.75, 161.28 2.39 M57.23 146.47 C102.13 96.95, 140.06 50.36, 182.54 2.32 M57.23 146.47 C107.27 90.65, 160.26 33.17, 182.54 2.32 M77.83 147.16 C120.74 90.91, 169.46 47.85, 203.8 2.26 M77.83 147.16 C119.65 100.61, 157.33 55.66, 203.8 2.26 M99.09 147.09 C145.25 97.32, 187.55 48.42, 225.06 2.19 M99.09 147.09 C139.22 100.18, 176.56 49.93, 225.06 2.19 M120.35 147.02 C152.96 117.36, 178.02 81.69, 246.32 2.12 M120.35 147.02 C154.2 112.25, 186.3 74.7, 246.32 2.12 M141.61 146.95 C173.59 109.1, 204.29 71.9, 267.58 2.05 M141.61 146.95 C188.13 92.76, 235.54 37.62, 267.58 2.05 M162.87 146.88 C207.87 94.65, 247.48 47.25, 288.84 1.98 M162.87 146.88 C195.61 104.23, 231.58 65.48, 288.84 1.98 M184.13 146.81 C230.5 92.07, 278.25 45.15, 310.1 1.91 M184.13 146.81 C232.02 97.94, 272.08 45.71, 310.1 1.91 M205.39 146.75 C230.21 114.29, 260.6 81.75, 330.7 2.6 M205.39 146.75 C242.55 97.95, 285.06 53.5, 330.7 2.6 M226.65 146.68 C273.91 92.44, 326.69 35.22, 351.96 2.53 M226.65 146.68 C250.3 117.36, 280.78 85.21, 351.96 2.53 M247.91 146.61 C291.28 96.04, 331.2 44.62, 373.22 2.46 M247.91 146.61 C283.98 98.18, 322.49 55.26, 373.22 2.46 M268.52 147.29 C307.04 102.64, 345.12 66.11, 394.48 2.39 M268.52 147.29 C299.58 116.06, 324.77 86.79, 394.48 2.39 M289.78 147.22 C323.44 110.02, 359.54 68.91, 415.74 2.32 M289.78 147.22 C320.79 114.36, 353.26 75.96, 415.74 2.32 M311.04 147.16 C337.14 110.23, 371.52 74.54, 437 2.25 M311.04 147.16 C337.82 116.95, 362.8 83.88, 437 2.25 M332.3 147.09 C373.75 101.61, 422.75 47.18, 458.26 2.18 M332.3 147.09 C362.76 109.33, 397.38 70.01, 458.26 2.18 M353.56 147.02 C389.05 112.64, 420.03 75.72, 479.52 2.11 M353.56 147.02 C385.07 104, 419.04 67.24, 479.52 2.11 M374.82 146.95 C421.65 93.54, 466.63 38.05, 500.13 2.8 M374.82 146.95 C403.95 113, 435.34 79.81, 500.13 2.8 M396.08 146.88 C428.43 105.54, 467.91 60.48, 521.39 2.73 M396.08 146.88 C438.24 103.03, 478.52 56.8, 521.39 2.73 M417.34 146.81 C457.21 95.84, 499.54 57.14, 542.65 2.66 M417.34 146.81 C465.88 94.59, 514.63 41.29, 542.65 2.66 M438.6 146.74 C467.67 116.69, 497.35 80.8, 563.91 2.59 M438.6 146.74 C474.47 105.31, 508.66 63.11, 563.91 2.59 M459.2 147.43 C487.58 112.69, 517.55 85.3, 585.17 2.52 M459.2 147.43 C483.58 119.23, 509.66 89.62, 585.17 2.52 M480.46 147.36 C522.74 99.81, 558.7 50.14, 606.43 2.45 M480.46 147.36 C523.83 102.92, 564.07 55.08, 606.43 2.45 M501.72 147.29 C546.14 103.93, 586.14 53.67, 627.69 2.38 M501.72 147.29 C545.95 95.21, 591.94 42.62, 627.69 2.38 M522.98 147.22 C550.76 114.72, 581.23 77.47, 643.7 8.35 M522.98 147.22 C550.01 113.56, 582.52 76.96, 643.7 8.35 M544.24 147.15 C576.77 110.39, 614.33 66.78, 659.05 15.08 M544.24 147.15 C574.08 111.59, 604.8 75.66, 659.05 15.08 M565.5 147.08 C599.91 115.53, 625.61 82.19, 665.88 31.61 M565.5 147.08 C596 113.77, 623.4 77.61, 665.88 31.61 M586.76 147.01 C619.39 107.32, 647.14 74.59, 666.15 55.69 M586.76 147.01 C605.42 127.23, 621.03 110.95, 666.15 55.69 M608.02 146.94 C628.12 121.98, 653.52 98.04, 665.76 80.53 M608.02 146.94 C626.23 125.64, 640.86 108.91, 665.76 80.53 M632.57 143.1 C642.53 134.92, 649.1 115.89, 658.15 113.67 M632.57 143.1 C639.66 136.51, 645.25 130.1, 658.15 113.67" stroke="#ffc9c9" stroke-width="2" fill="none"></path><path d="M32 0 M32 0 C216.69 1.42, 399.52 1.39, 626.43 0 M32 0 C220.88 -0.28, 408.25 0.52, 626.43 0 M626.43 0 C650.35 -1, 655.82 12.85, 658.43 32 M626.43 0 C646.4 -0.74, 657.83 10.26, 658.43 32 M658.43 32 C659.93 45.39, 661.2 68.98, 658.43 105.47 M658.43 32 C657.56 57.67, 658.26 82.16, 658.43 105.47 M658.43 105.47 C660.48 129.83, 649.01 133.82, 626.43 137.47 M658.43 105.47 C662.26 131.19, 648.12 134.93, 626.43 137.47 M626.43 137.47 C419.94 140.48, 211.19 141.39, 32 137.47 M626.43 137.47 C450.34 139.35, 273.21 139.53, 32 137.47 M32 137.47 C12.68 140.07, 0.83 126.63, 0 105.47 M32 137.47 C7.15 139.85, 2.24 127.66, 0 105.47 M0 105.47 C-1.36 81.83, 1.04 53.46, 0 32 M0 105.47 C1.04 77.89, 2 50.73, 0 32 M0 32 C3.73 13.99, 13.1 2.77, 32 0 M0 32 C-2.64 8.52, 11.81 -0.46, 32 0" stroke="#1e1e1e" stroke-width="4" fill="none"></path></g><g stroke-linecap="round" transform="translate(1909.3233947549315 172.79914812185166) rotate(0 329.21605509085487 68.73741809589274)"><path d="M7.86 8.16 C7.86 8.16, 7.86 8.16, 7.86 8.16 M7.86 8.16 C7.86 8.16, 7.86 8.16, 7.86 8.16 M4.85 36.01 C14.31 29.36, 25.87 19.13, 34.37 2.05 M4.85 36.01 C15.82 27.71, 21.17 14.93, 34.37 2.05 M4.46 60.85 C21.92 45.6, 32.56 25.67, 55.63 1.98 M4.46 60.85 C13.51 47.98, 26.34 34.56, 55.63 1.98 M4.72 84.93 C25.37 55.46, 54.7 34.35, 76.89 1.91 M4.72 84.93 C23.5 61.68, 43.51 37.09, 76.89 1.91 M4.33 109.77 C32.36 69.74, 60.8 36.88, 98.15 1.85 M4.33 109.77 C30.49 81.22, 54.27 50.12, 98.15 1.85 M8.54 129.32 C37.05 89.65, 66.72 54.59, 119.41 1.78 M8.54 129.32 C35.32 99.58, 59.02 72.02, 119.41 1.78 M23.24 136.8 C65.23 90.5, 100.34 47.15, 140.02 2.46 M23.24 136.8 C69.78 84.78, 119.37 31.21, 140.02 2.46 M35.97 146.54 C78.65 90.57, 127.14 47.76, 161.28 2.39 M35.97 146.54 C77.57 100.24, 115.04 55.52, 161.28 2.39 M57.23 146.47 C103.15 96.96, 145.23 48.33, 182.54 2.32 M57.23 146.47 C97.15 99.81, 134.29 49.81, 182.54 2.32 M77.83 147.16 C110.44 117.5, 135.5 81.83, 203.8 2.26 M77.83 147.16 C111.68 112.39, 143.78 74.84, 203.8 2.26 M99.09 147.09 C131.06 109.24, 161.77 72.04, 225.06 2.19 M99.09 147.09 C145.61 92.9, 193.02 37.75, 225.06 2.19 M120.35 147.02 C165.35 94.79, 204.96 47.39, 246.32 2.12 M120.35 147.02 C153.09 104.37, 189.06 65.62, 246.32 2.12 M141.61 146.95 C187.98 92.21, 235.73 45.29, 267.58 2.05 M141.61 146.95 C189.5 98.07, 229.56 45.84, 267.58 2.05 M162.87 146.88 C187.83 114.26, 218.37 81.54, 288.84 1.98 M162.87 146.88 C200.23 97.84, 242.96 53.14, 288.84 1.98 M184.13 146.81 C231.64 92.28, 284.67 34.76, 310.1 1.91 M184.13 146.81 C207.91 117.34, 238.54 85.03, 310.1 1.91 M205.39 146.75 C248.76 96.18, 288.68 44.76, 330.7 2.6 M205.39 146.75 C241.46 98.32, 279.97 55.4, 330.7 2.6 M226.65 146.68 C264.99 102.24, 302.88 65.94, 351.96 2.53 M226.65 146.68 C257.56 115.6, 282.6 86.5, 351.96 2.53 M247.91 146.61 C281.39 109.6, 317.3 68.71, 373.22 2.46 M247.91 146.61 C278.77 113.92, 311.07 75.7, 373.22 2.46 M268.52 147.29 C294.62 110.37, 329 74.68, 394.48 2.39 M268.52 147.29 C295.3 117.09, 320.28 84.02, 394.48 2.39 M289.78 147.22 C331.23 101.75, 380.23 47.32, 415.74 2.32 M289.78 147.22 C320.24 109.47, 354.86 70.15, 415.74 2.32 M311.04 147.16 C346.53 112.77, 377.51 75.86, 437 2.25 M311.04 147.16 C342.55 104.14, 376.52 67.38, 437 2.25 M332.3 147.09 C379.36 93.38, 424.6 37.61, 458.26 2.18 M332.3 147.09 C361.58 112.96, 393.13 79.59, 458.26 2.18 M353.56 147.02 C386.1 105.45, 425.77 60.16, 479.52 2.11 M353.56 147.02 C395.93 102.94, 436.42 56.47, 479.52 2.11 M374.82 146.95 C414.69 95.98, 457.02 57.27, 500.13 2.8 M374.82 146.95 C423.36 94.72, 472.11 41.43, 500.13 2.8 M396.08 146.88 C425.15 116.83, 454.83 80.94, 521.39 2.73 M396.08 146.88 C431.95 105.45, 466.14 63.25, 521.39 2.73 M417.34 146.81 C445.57 112.24, 475.4 85.02, 542.65 2.66 M417.34 146.81 C441.58 118.77, 467.53 89.31, 542.65 2.66 M438.6 146.74 C480.66 99.44, 516.41 50.02, 563.91 2.59 M438.6 146.74 C481.74 102.54, 521.77 54.95, 563.91 2.59 M459.2 147.43 C503.62 104.07, 543.62 53.81, 585.17 2.52 M459.2 147.43 C503.43 95.35, 549.42 42.76, 585.17 2.52 M480.46 147.36 C509.53 113.34, 541.26 74.63, 606.43 2.45 M480.46 147.36 C508.74 112.23, 542.57 74.08, 606.43 2.45 M501.72 147.29 C537.53 106.77, 578.35 59.42, 627.69 2.38 M501.72 147.29 C534.56 108.37, 568.26 69.01, 627.69 2.38 M522.98 147.22 C563.61 108.59, 595.25 68.42, 643.7 8.35 M522.98 147.22 C559.51 107, 592.83 64.03, 643.7 8.35 M544.24 147.15 C591.14 91.3, 633.05 42.28, 659.05 15.08 M544.24 147.15 C570.7 118.76, 593.55 94.16, 659.05 15.08 M565.5 147.08 C602.08 103.33, 644.52 59.8, 665.88 31.61 M565.5 147.08 C595.88 110.94, 622.68 80.21, 665.88 31.61 M586.76 147.01 C617.37 113.86, 645.28 70.3, 666.15 55.69 M586.76 147.01 C604.85 126.43, 622.41 106.23, 666.15 55.69 M608.02 146.94 C626.77 126.46, 641.81 105.82, 665.76 80.53 M608.02 146.94 C628.67 124.82, 644.24 105.76, 665.76 80.53 M632.57 143.1 C644.22 131.51, 650.73 121.45, 658.15 113.67 M632.57 143.1 C640.76 135.6, 646.24 127.66, 658.15 113.67" stroke="#ffc9c9" stroke-width="2" fill="none"></path><path d="M32 0 M32 0 C263.01 2.63, 495.85 3.19, 626.43 0 M32 0 C206.86 -4.32, 381.89 -2.83, 626.43 0 M626.43 0 C648.08 -2.21, 660.41 11.41, 658.43 32 M626.43 0 C650.26 3.4, 659.64 10.98, 658.43 32 M658.43 32 C660.36 61.36, 656.04 85.54, 658.43 105.47 M658.43 32 C659.59 51.28, 657.64 71.78, 658.43 105.47 M658.43 105.47 C660.38 127.55, 649.76 134.05, 626.43 137.47 M658.43 105.47 C653.87 123.8, 650.14 137.22, 626.43 137.47 M626.43 137.47 C456.25 136.71, 287.23 137.48, 32 137.47 M626.43 137.47 C442.27 141.98, 256.68 141.05, 32 137.47 M32 137.47 C11.66 137.07, 3.05 128.73, 0 105.47 M32 137.47 C6.26 135.39, -4.08 128.57, 0 105.47 M0 105.47 C-0.18 81.37, -1.77 52.41, 0 32 M0 105.47 C-0.51 86.95, -1.71 71.46, 0 32 M0 32 C3.48 8.58, 9.36 -1.59, 32 0 M0 32 C-1.82 13.34, 7.34 -1.08, 32 0" stroke="#1e1e1e" stroke-width="4" fill="none"></path></g><g stroke-linecap="round" transform="translate(1885.205002440583 703.4037790375148) rotate(0 329.21605509085487 68.73741809589274)"><path d="M7.86 8.16 C7.86 8.16, 7.86 8.16, 7.86 8.16 M7.86 8.16 C7.86 8.16, 7.86 8.16, 7.86 8.16 M4.85 36.01 C16.29 22.13, 23.98 12.52, 34.37 2.05 M4.85 36.01 C16.29 21.27, 28.25 11.32, 34.37 2.05 M4.46 60.85 C18.09 44.55, 38.7 20.13, 55.63 1.98 M4.46 60.85 C22.01 40.77, 39.78 20.44, 55.63 1.98 M4.72 84.93 C20.5 63.26, 39.92 39.62, 76.89 1.91 M4.72 84.93 C29.04 61.74, 52.01 33.66, 76.89 1.91 M4.33 109.77 C24.07 89.39, 46.07 68.67, 98.15 1.85 M4.33 109.77 C39.02 69.61, 75.9 28.66, 98.15 1.85 M8.54 129.32 C32.6 101.55, 62.25 76.77, 119.41 1.78 M8.54 129.32 C38.41 93.35, 67.89 60.54, 119.41 1.78 M23.24 136.8 C56.87 102.33, 79.19 68.36, 140.02 2.46 M23.24 136.8 C57.48 95.01, 94.07 54.06, 140.02 2.46 M35.97 146.54 C58.83 112.54, 85.51 87.33, 161.28 2.39 M35.97 146.54 C74.93 104.13, 110.6 64.06, 161.28 2.39 M57.23 146.47 C96.23 104.23, 137.47 60.36, 182.54 2.32 M57.23 146.47 C106.34 91.44, 156.6 37.8, 182.54 2.32 M77.83 147.16 C123.72 89.31, 171.07 38.23, 203.8 2.26 M77.83 147.16 C115.38 101.6, 156.13 57.21, 203.8 2.26 M99.09 147.09 C139.65 111.67, 170.46 70.26, 225.06 2.19 M99.09 147.09 C138.32 99.72, 178.9 55.71, 225.06 2.19 M120.35 147.02 C154.86 107.15, 193.32 65.55, 246.32 2.12 M120.35 147.02 C148 115.7, 175.46 85.48, 246.32 2.12 M141.61 146.95 C175.34 103.39, 207.66 72.22, 267.58 2.05 M141.61 146.95 C192.86 89.47, 245.94 30.11, 267.58 2.05 M162.87 146.88 C205.77 102.15, 245.83 47.87, 288.84 1.98 M162.87 146.88 C191.37 115.51, 217.9 83.8, 288.84 1.98 M184.13 146.81 C227.91 91.01, 280.24 27.77, 310.1 1.91 M184.13 146.81 C231.23 91.05, 280.69 34.9, 310.1 1.91 M205.39 146.75 C246.96 104.61, 289.42 52.67, 330.7 2.6 M205.39 146.75 C236.87 113.07, 264.9 79.85, 330.7 2.6 M226.65 146.68 C249.07 109.28, 277.32 81.8, 351.96 2.53 M226.65 146.68 C260.18 108.87, 289.94 71.5, 351.96 2.53 M247.91 146.61 C288.65 96.8, 329.76 47.99, 373.22 2.46 M247.91 146.61 C287.52 102.16, 332.18 50.07, 373.22 2.46 M268.52 147.29 C306.36 100.82, 353.14 54.26, 394.48 2.39 M268.52 147.29 C319.51 91.63, 366.1 32.82, 394.48 2.39 M289.78 147.22 C334.46 95.85, 383.73 36.54, 415.74 2.32 M289.78 147.22 C327.44 100.66, 368.19 56.37, 415.74 2.32 M311.04 147.16 C344.88 106.58, 387.39 58.22, 437 2.25 M311.04 147.16 C346.27 111.07, 377.42 74.76, 437 2.25 M332.3 147.09 C379.58 90.8, 429.42 32.79, 458.26 2.18 M332.3 147.09 C368.71 102.31, 408.01 55.85, 458.26 2.18 M353.56 147.02 C399.21 92.76, 440.21 45.19, 479.52 2.11 M353.56 147.02 C384.36 109.92, 419.18 72.5, 479.52 2.11 M374.82 146.95 C402.84 114.03, 423.29 85.29, 500.13 2.8 M374.82 146.95 C411.6 98.83, 452.36 51.39, 500.13 2.8 M396.08 146.88 C436.66 95.93, 484.42 48.27, 521.39 2.73 M396.08 146.88 C436.73 102.65, 479.26 54.25, 521.39 2.73 M417.34 146.81 C439.35 112.61, 471.97 77.4, 542.65 2.66 M417.34 146.81 C464.79 91.95, 511.71 39.84, 542.65 2.66 M438.6 146.74 C481.71 101.49, 518.7 60.45, 563.91 2.59 M438.6 146.74 C483.3 91.45, 528.72 41.12, 563.91 2.59 M459.2 147.43 C501.59 105.31, 539 53.75, 585.17 2.52 M459.2 147.43 C500.39 96.82, 544.57 48.25, 585.17 2.52 M480.46 147.36 C524.54 98.86, 569.63 40.18, 606.43 2.45 M480.46 147.36 C519.49 102.88, 559.32 56.94, 606.43 2.45 M501.72 147.29 C542.18 98.58, 585.91 46.38, 627.69 2.38 M501.72 147.29 C534.2 112.35, 566.73 79.57, 627.69 2.38 M522.98 147.22 C569.01 90.63, 616.67 39.59, 643.7 8.35 M522.98 147.22 C567.3 102.14, 605.74 55.81, 643.7 8.35 M544.24 147.15 C567.07 116.09, 596.97 93.07, 659.05 15.08 M544.24 147.15 C577.1 109.73, 604.84 71.09, 659.05 15.08 M565.5 147.08 C596.14 109.58, 631.9 77.01, 665.88 31.61 M565.5 147.08 C591.6 119.55, 614.46 90.88, 665.88 31.61 M586.76 147.01 C616.36 115.85, 651.42 80.59, 666.15 55.69 M586.76 147.01 C609.44 120.54, 632.69 92.33, 666.15 55.69 M608.02 146.94 C625.92 123.66, 641.98 110.25, 665.76 80.53 M608.02 146.94 C624.58 129.69, 636.1 115.03, 665.76 80.53 M632.57 143.1 C639.22 132.3, 645.47 127.9, 658.15 113.67 M632.57 143.1 C643.72 133.34, 649.68 121.4, 658.15 113.67" stroke="#ffc9c9" stroke-width="2" fill="none"></path><path d="M32 0 M32 0 C208.87 -0.74, 387.15 -1.06, 626.43 0 M32 0 C156.13 -4.97, 280.53 -4.38, 626.43 0 M626.43 0 C649.94 2.96, 659.49 10.94, 658.43 32 M626.43 0 C651.6 -0.15, 659.03 12.94, 658.43 32 M658.43 32 C656.12 58.25, 660.16 81.29, 658.43 105.47 M658.43 32 C658.29 54.08, 658.31 73.71, 658.43 105.47 M658.43 105.47 C654.47 124.19, 649.83 137.26, 626.43 137.47 M658.43 105.47 C657.75 130.21, 646.53 135.67, 626.43 137.47 M626.43 137.47 C429.24 142.78, 233.03 142.26, 32 137.47 M626.43 137.47 C407.18 135.17, 188.14 135.64, 32 137.47 M32 137.47 C6.83 135.66, -3.55 128.34, 0 105.47 M32 137.47 C13.06 140.83, -0.57 127.83, 0 105.47 M0 105.47 C-2.66 83.3, 2.24 56.17, 0 32 M0 105.47 C2.16 89.15, -0.24 74.12, 0 32 M0 32 C-1.58 12.99, 7.77 -0.94, 32 0 M0 32 C0.03 14.26, 7.79 4.38, 32 0" stroke="#1e1e1e" stroke-width="4" fill="none"></path></g><g stroke-linecap="round"><g transform="translate(1068.7974225998921 581.6058978500557) rotate(0 155.0745150569768 -14.110013297457044)"><path d="M0.48 0.55 C52.48 -3.46, 261.01 -19.98, 312.85 -24.73 M-2.71 -1.63 C48.79 -6.37, 256.91 -24.77, 310.25 -28.77" stroke="#1e1e1e" stroke-width="4" fill="none"></path></g><g transform="translate(1068.7974225998921 581.6058978500557) rotate(0 155.0745150569768 -14.110013297457044)"><path d="M283.78 -17.2 C294.61 -23.27, 299.01 -21.13, 313.64 -29.56 M283.23 -17.76 C290.21 -19.16, 301.56 -22.53, 309.93 -30.65" stroke="#1e1e1e" stroke-width="4" fill="none"></path></g><g transform="translate(1068.7974225998921 581.6058978500557) rotate(0 155.0745150569768 -14.110013297457044)"><path d="M282.08 -37.65 C293.38 -36.98, 298.33 -28.1, 313.64 -29.56 M281.54 -38.22 C289.11 -33.32, 300.97 -30.41, 309.93 -30.65" stroke="#1e1e1e" stroke-width="4" fill="none"></path></g></g><mask></mask><g stroke-linecap="round"><g transform="translate(1724.8176935501667 557.4875055357072) rotate(0 89.69889106277117 -154.04830203721326)"><path d="M-2.33 0.78 C26.7 -49.65, 146.7 -253.84, 176.43 -304.72 M1.6 -1.27 C31.31 -52.31, 151.73 -257.57, 181.73 -308.87" stroke="#1e1e1e" stroke-width="4" fill="none"></path></g><g transform="translate(1724.8176935501667 557.4875055357072) rotate(0 89.69889106277117 -154.04830203721326)"><path d="M177.44 -282.28 C181.11 -293.97, 183.46 -302.8, 180.26 -307.08 M176.84 -277.55 C180.09 -292.32, 180.13 -303.35, 181.96 -307.57" stroke="#1e1e1e" stroke-width="4" fill="none"></path></g><g transform="translate(1724.8176935501667 557.4875055357072) rotate(0 89.69889106277117 -154.04830203721326)"><path d="M159.73 -292.65 C169.98 -300.1, 179.08 -304.98, 180.26 -307.08 M159.13 -287.92 C169.24 -298.43, 176.03 -305.51, 181.96 -307.57" stroke="#1e1e1e" stroke-width="4" fill="none"></path></g></g><mask></mask><g stroke-linecap="round"><g transform="translate(1963.5897774622156 550.251987841403) rotate(0 3.506263427353474 75.15807303045472)"><path d="M-1.62 1.24 C-0.08 25.46, 6.74 122.63, 8.63 147.2 M2.7 -0.56 C3.82 23.98, 4.97 126.79, 5.84 150.87" stroke="#1e1e1e" stroke-width="4" fill="none"></path></g><g transform="translate(1963.5897774622156 550.251987841403) rotate(0 3.506263427353474 75.15807303045472)"><path d="M-3.27 121.47 C-1.51 130.95, 3.61 142.2, 5.59 153.51 M-4.99 122.73 C-1.27 131.36, 0.49 143.39, 5.1 152.63" stroke="#1e1e1e" stroke-width="4" fill="none"></path></g><g transform="translate(1963.5897774622156 550.251987841403) rotate(0 3.506263427353474 75.15807303045472)"><path d="M17.25 121.01 C13.29 130.39, 12.68 141.76, 5.59 153.51 M15.52 122.28 C12.01 131.31, 6.54 143.5, 5.1 152.63" stroke="#1e1e1e" stroke-width="4" fill="none"></path></g></g><mask></mask><g stroke-linecap="round" transform="translate(1279.83335535044 1108.592769918567) rotate(0 329.2160550908549 68.73741809589274)"><path d="M7.86 8.16 C7.86 8.16, 7.86 8.16, 7.86 8.16 M7.86 8.16 C7.86 8.16, 7.86 8.16, 7.86 8.16 M4.85 36.01 C13.71 27.86, 18.54 25.67, 34.37 2.05 M4.85 36.01 C15.15 23.24, 28.11 10.97, 34.37 2.05 M4.46 60.85 C22.51 40.61, 33.42 28.28, 55.63 1.98 M4.46 60.85 C24.16 38.95, 42.67 11.93, 55.63 1.98 M4.72 84.93 C23.21 66.29, 39.05 48.08, 76.89 1.91 M4.72 84.93 C26.8 59.56, 47.72 33.82, 76.89 1.91 M4.33 109.77 C38.26 73.4, 62.53 43.18, 98.15 1.85 M4.33 109.77 C40.17 71.04, 72.97 32.02, 98.15 1.85 M8.54 129.32 C43.32 94.63, 71.64 58.76, 119.41 1.78 M8.54 129.32 C49.79 80.8, 94.42 31.78, 119.41 1.78 M23.24 136.8 C57.41 91.93, 93.8 59.92, 140.02 2.46 M23.24 136.8 C61.04 95.38, 98.09 53.48, 140.02 2.46 M35.97 146.54 C72.54 104.37, 111.65 55.83, 161.28 2.39 M35.97 146.54 C67.17 112.49, 94.65 77.35, 161.28 2.39 M57.23 146.47 C101.87 91.91, 139.97 42.04, 182.54 2.32 M57.23 146.47 C102.94 95.61, 144.75 46.08, 182.54 2.32 M77.83 147.16 C116.36 107.51, 152.19 64.25, 203.8 2.26 M77.83 147.16 C109.55 112.89, 141.29 74.28, 203.8 2.26 M99.09 147.09 C135.82 112.14, 165.33 73.21, 225.06 2.19 M99.09 147.09 C141.47 99.63, 187.26 48.86, 225.06 2.19 M120.35 147.02 C150.85 115.61, 172.26 85.97, 246.32 2.12 M120.35 147.02 C151.01 111.12, 185.84 72.12, 246.32 2.12 M141.61 146.95 C185.26 84.71, 238.38 28.33, 267.58 2.05 M141.61 146.95 C174.03 109.93, 205.26 73.76, 267.58 2.05 M162.87 146.88 C207.96 97.03, 248.52 48.3, 288.84 1.98 M162.87 146.88 C206 100.32, 244.88 48.32, 288.84 1.98 M184.13 146.81 C233.08 91.09, 281.47 33.56, 310.1 1.91 M184.13 146.81 C234.63 91.98, 279.68 37.32, 310.1 1.91 M205.39 146.75 C238.48 107.67, 271.46 67.86, 330.7 2.6 M205.39 146.75 C249.89 94.55, 295.03 45.53, 330.7 2.6 M226.65 146.68 C265.36 103.36, 301.67 64.09, 351.96 2.53 M226.65 146.68 C268.02 103.16, 306.31 56.74, 351.96 2.53 M247.91 146.61 C292.04 96.74, 334.57 44.55, 373.22 2.46 M247.91 146.61 C272.21 117.2, 300.69 85.63, 373.22 2.46 M268.52 147.29 C320.92 92.33, 368.27 31.94, 394.48 2.39 M268.52 147.29 C292.45 116.88, 318.99 86.65, 394.48 2.39 M289.78 147.22 C320.92 108.13, 353.26 66.45, 415.74 2.32 M289.78 147.22 C316.8 114.62, 342.77 79.31, 415.74 2.32 M311.04 147.16 C357.73 92.67, 400.55 41.17, 437 2.25 M311.04 147.16 C353.73 101, 395.28 53.93, 437 2.25 M332.3 147.09 C377.05 88.21, 429.6 39.41, 458.26 2.18 M332.3 147.09 C376.59 99.98, 417.83 48.76, 458.26 2.18 M353.56 147.02 C396.59 94.37, 447.28 44.22, 479.52 2.11 M353.56 147.02 C385.31 114.78, 413.73 80.15, 479.52 2.11 M374.82 146.95 C406.54 110.65, 430.62 78.21, 500.13 2.8 M374.82 146.95 C413.47 102.75, 451.03 56.12, 500.13 2.8 M396.08 146.88 C433.11 99.86, 482.02 51.37, 521.39 2.73 M396.08 146.88 C429.17 115.47, 458.04 78.7, 521.39 2.73 M417.34 146.81 C452.37 107.08, 489.32 64.88, 542.65 2.66 M417.34 146.81 C457.38 96.38, 503.18 43.89, 542.65 2.66 M438.6 146.74 C477.13 108.7, 508.75 69.16, 563.91 2.59 M438.6 146.74 C478.88 98.08, 526.8 46.58, 563.91 2.59 M459.2 147.43 C495.64 106.86, 532.05 64.78, 585.17 2.52 M459.2 147.43 C490.95 110.68, 521.83 76.08, 585.17 2.52 M480.46 147.36 C511.77 116.68, 535.74 84.92, 606.43 2.45 M480.46 147.36 C525.11 96.53, 566.71 49.99, 606.43 2.45 M501.72 147.29 C545.16 93.6, 589.63 38.5, 627.69 2.38 M501.72 147.29 C532.22 111.02, 560.53 81.74, 627.69 2.38 M522.98 147.22 C570.18 91.83, 611.73 39.8, 643.7 8.35 M522.98 147.22 C548 113.18, 578.44 77.29, 643.7 8.35 M544.24 147.15 C581.65 96.82, 623.36 55.66, 659.05 15.08 M544.24 147.15 C583.92 99.99, 625.84 54.72, 659.05 15.08 M565.5 147.08 C597.37 116.74, 621.99 87.17, 665.88 31.61 M565.5 147.08 C590.78 116.57, 618.13 84.45, 665.88 31.61 M586.76 147.01 C613.57 109.62, 648.63 77.38, 666.15 55.69 M586.76 147.01 C609.37 119.17, 632.82 94.85, 666.15 55.69 M608.02 146.94 C625.78 127.5, 647.61 99.44, 665.76 80.53 M608.02 146.94 C624.62 127.27, 642.72 104.17, 665.76 80.53 M632.57 143.1 C642.5 134.07, 653.87 121.41, 658.15 113.67 M632.57 143.1 C639.57 134.25, 652.56 122.54, 658.15 113.67" stroke="#a5d8ff" stroke-width="2" fill="none"></path><path d="M32 0 M32 0 C254.31 -0.02, 473.77 0.88, 626.43 0 M32 0 C162.79 -4.13, 293.46 -2.89, 626.43 0 M626.43 0 C650.54 3.34, 660.21 10.3, 658.43 32 M626.43 0 C649.46 2.77, 658.92 8.68, 658.43 32 M658.43 32 C660.12 58.59, 662.72 80.42, 658.43 105.47 M658.43 32 C657.54 45.2, 655.71 62.27, 658.43 105.47 M658.43 105.47 C660.75 129.94, 651.42 141.2, 626.43 137.47 M658.43 105.47 C661.45 131.12, 646.43 137.66, 626.43 137.47 M626.43 137.47 C399.71 143.19, 174.73 142.31, 32 137.47 M626.43 137.47 C473.14 137.7, 320.36 137.12, 32 137.47 M32 137.47 C7.91 139.08, 3.92 128.77, 0 105.47 M32 137.47 C9.75 139.54, -0.63 123, 0 105.47 M0 105.47 C-1.29 86.95, 2.91 59.13, 0 32 M0 105.47 C-0.06 80.89, 0.89 56.9, 0 32 M0 32 C1.89 12.08, 11.94 -2.99, 32 0 M0 32 C3.98 8.39, 12.24 3.29, 32 0" stroke="#1e1e1e" stroke-width="4" fill="none"></path></g><g stroke-linecap="round" transform="translate(2251.8045656186778 1118.2401268443066) rotate(0 329.21605509085475 68.73741809589274)"><path d="M7.86 8.16 C7.86 8.16, 7.86 8.16, 7.86 8.16 M7.86 8.16 C7.86 8.16, 7.86 8.16, 7.86 8.16 M4.85 36.01 C16.77 28.37, 17.11 14.53, 34.37 2.05 M4.85 36.01 C13.74 24.99, 25.18 16.12, 34.37 2.05 M4.46 60.85 C20.64 48.49, 30.59 32.31, 55.63 1.98 M4.46 60.85 C23.99 40.3, 46.02 17.49, 55.63 1.98 M4.72 84.93 C25.54 62.4, 45.76 36.21, 76.89 1.91 M4.72 84.93 C26.59 58.81, 47.27 37.55, 76.89 1.91 M4.33 109.77 C31.72 81.54, 49.48 58.32, 98.15 1.85 M4.33 109.77 C29.86 79.39, 54.88 52.01, 98.15 1.85 M8.54 129.32 C52.69 85.03, 85.31 37.34, 119.41 1.78 M8.54 129.32 C40.75 91.65, 75.4 53.27, 119.41 1.78 M23.24 136.8 C45.68 104.33, 71.72 79.24, 140.02 2.46 M23.24 136.8 C62.76 90.26, 103.92 41.26, 140.02 2.46 M35.97 146.54 C76.1 96.2, 124.67 49.89, 161.28 2.39 M35.97 146.54 C77.32 103.2, 116.85 56.99, 161.28 2.39 M57.23 146.47 C89.03 116.97, 113.25 89.23, 182.54 2.32 M57.23 146.47 C92.47 107.91, 127.01 68.8, 182.54 2.32 M77.83 147.16 C122.02 88.05, 173.55 34.02, 203.8 2.26 M77.83 147.16 C122.92 93.29, 171.97 41.59, 203.8 2.26 M99.09 147.09 C148.18 91.8, 192.06 35.54, 225.06 2.19 M99.09 147.09 C143.36 91.04, 192.11 38.65, 225.06 2.19 M120.35 147.02 C150.93 114.43, 180.84 75.26, 246.32 2.12 M120.35 147.02 C157.88 106.59, 195.37 59.5, 246.32 2.12 M141.61 146.95 C168.26 115.79, 199.77 84.17, 267.58 2.05 M141.61 146.95 C185.78 94.5, 229.03 47.5, 267.58 2.05 M162.87 146.88 C197.88 111.06, 228.21 73.45, 288.84 1.98 M162.87 146.88 C211.91 98.27, 254.46 46.73, 288.84 1.98 M184.13 146.81 C230 95.98, 271.78 53.72, 310.1 1.91 M184.13 146.81 C228.38 95.88, 275.05 44.08, 310.1 1.91 M205.39 146.75 C245.42 104.27, 280.98 59.91, 330.7 2.6 M205.39 146.75 C229.64 115.28, 256.49 85.21, 330.7 2.6 M226.65 146.68 C264.25 100.84, 298.82 61.48, 351.96 2.53 M226.65 146.68 C270.37 97.58, 312.6 48.7, 351.96 2.53 M247.91 146.61 C290.16 97.56, 339.24 43.89, 373.22 2.46 M247.91 146.61 C295.14 89.56, 341.91 36.45, 373.22 2.46 M268.52 147.29 C307.15 102.62, 352.83 48.56, 394.48 2.39 M268.52 147.29 C312.28 97.99, 355.67 48.99, 394.48 2.39 M289.78 147.22 C326.32 107.39, 371.33 62.39, 415.74 2.32 M289.78 147.22 C342.07 91.71, 391.76 36.13, 415.74 2.32 M311.04 147.16 C353.02 101.34, 387.94 59.09, 437 2.25 M311.04 147.16 C347.6 106.05, 382.03 61.95, 437 2.25 M332.3 147.09 C358.49 111.37, 383.55 83.61, 458.26 2.18 M332.3 147.09 C382.52 94.39, 428.86 39, 458.26 2.18 M353.56 147.02 C384.4 104.41, 419.96 66.66, 479.52 2.11 M353.56 147.02 C389.03 106.09, 426.87 63.3, 479.52 2.11 M374.82 146.95 C406.98 115.75, 434.61 81.2, 500.13 2.8 M374.82 146.95 C415.01 105.02, 454.73 57.6, 500.13 2.8 M396.08 146.88 C439 86.75, 487.02 36.76, 521.39 2.73 M396.08 146.88 C439.98 96.43, 483.84 44.63, 521.39 2.73 M417.34 146.81 C454.71 109.46, 491.77 62.62, 542.65 2.66 M417.34 146.81 C463.9 91.16, 510.94 38.1, 542.65 2.66 M438.6 146.74 C485.07 100.19, 523.7 44.83, 563.91 2.59 M438.6 146.74 C486.24 86.86, 537.77 29.49, 563.91 2.59 M459.2 147.43 C504.34 89.29, 554.02 36.89, 585.17 2.52 M459.2 147.43 C482.41 119.51, 508.94 91.84, 585.17 2.52 M480.46 147.36 C520.27 101.97, 559.31 62.35, 606.43 2.45 M480.46 147.36 C514.26 108.54, 545.99 68.57, 606.43 2.45 M501.72 147.29 C533.36 109.25, 572.4 74.17, 627.69 2.38 M501.72 147.29 C529.49 116.55, 554.68 85.64, 627.69 2.38 M522.98 147.22 C556.04 111.9, 593.49 66.35, 643.7 8.35 M522.98 147.22 C563.82 105.27, 604.51 58.28, 643.7 8.35 M544.24 147.15 C571.31 114.68, 594.58 81.72, 659.05 15.08 M544.24 147.15 C573.77 110.74, 602.96 80.44, 659.05 15.08 M565.5 147.08 C591.97 116.81, 620.8 81.73, 665.88 31.61 M565.5 147.08 C594 117.37, 621.81 83.1, 665.88 31.61 M586.76 147.01 C609.23 123.14, 628.26 94.08, 666.15 55.69 M586.76 147.01 C605.33 124.11, 619.83 104.36, 666.15 55.69 M608.02 146.94 C630.52 125.66, 649.14 97.24, 665.76 80.53 M608.02 146.94 C629.24 126.3, 646.92 104.33, 665.76 80.53 M632.57 143.1 C644.25 134.72, 651.25 117.56, 658.15 113.67 M632.57 143.1 C643.54 131.26, 651.56 121.58, 658.15 113.67" stroke="#a5d8ff" stroke-width="2" fill="none"></path><path d="M32 0 M32 0 C154.37 0.27, 280.44 1.05, 626.43 0 M32 0 C159.91 -2.59, 287.06 -3.33, 626.43 0 M626.43 0 C649.24 2.41, 658.86 8.94, 658.43 32 M626.43 0 C649.25 4.49, 659.04 10.96, 658.43 32 M658.43 32 C655.51 55.25, 662.63 84.35, 658.43 105.47 M658.43 32 C658.34 49.94, 659.01 66.61, 658.43 105.47 M658.43 105.47 C661.06 130.56, 646.61 137.63, 626.43 137.47 M658.43 105.47 C662.12 127.64, 652.05 135.48, 626.43 137.47 M626.43 137.47 C399.81 138.24, 174.53 138.1, 32 137.47 M626.43 137.47 C426.67 136, 228.79 136.07, 32 137.47 M32 137.47 C9.87 139.27, -0.55 123.49, 0 105.47 M32 137.47 C10.23 134.87, 3.41 124.37, 0 105.47 M0 105.47 C0.85 76.51, -4.44 49.64, 0 32 M0 105.47 C0.76 82.58, 0.45 56.77, 0 32 M0 32 C3.46 8.69, 12.04 2.86, 32 0 M0 32 C-2.64 8.64, 13.84 -2.95, 32 0" stroke="#1e1e1e" stroke-width="4" fill="none"></path></g><g stroke-linecap="round"><g transform="translate(1056.7382264427179 1160.447313394416) rotate(0 108.5672998620008 3.5159828363689485)"><path d="M-2.67 -1.55 C33.5 -1, 182.42 3.91, 219.8 4.91 M1.08 3.78 C36.65 4.68, 181.09 7.99, 217.74 8.58" stroke="#1e1e1e" stroke-width="4" fill="none"></path></g><g transform="translate(1056.7382264427179 1160.447313394416) rotate(0 108.5672998620008 3.5159828363689485)"><path d="M187.14 18.74 C200.71 18.01, 211.35 11.1, 221.64 12.04 M191.28 19.4 C196.94 15.74, 204.79 11.64, 215.91 7.04" stroke="#1e1e1e" stroke-width="4" fill="none"></path></g><g transform="translate(1056.7382264427179 1160.447313394416) rotate(0 108.5672998620008 3.5159828363689485)"><path d="M187.55 -1.77 C201.19 5.68, 211.67 6.97, 221.64 12.04 M191.7 -1.12 C197.23 0.14, 204.98 0.94, 215.91 7.04" stroke="#1e1e1e" stroke-width="4" fill="none"></path></g></g><mask></mask><g stroke-linecap="round"><g transform="translate(1859.8806905105173 1174.9183487830248) rotate(0 194.03542774921812 4.047543399400297)"><path d="M0.7 -0.28 C66.04 1.77, 326.29 9.55, 390.44 11 M-2.37 -2.9 C62.94 -1.57, 323.8 4.43, 389.36 6.72" stroke="#1e1e1e" stroke-width="4" fill="none"></path></g><g transform="translate(1859.8806905105173 1174.9183487830248) rotate(0 194.03542774921812 4.047543399400297)"><path d="M360.49 19.23 C369.82 9.91, 372.98 7.9, 390.89 8.8 M361.77 15.84 C370.86 11.07, 383.7 9.99, 389.99 4.88" stroke="#1e1e1e" stroke-width="4" fill="none"></path></g><g transform="translate(1859.8806905105173 1174.9183487830248) rotate(0 194.03542774921812 4.047543399400297)"><path d="M361.07 -1.28 C370.06 -5.62, 373.09 -2.65, 390.89 8.8 M362.35 -4.68 C371.17 -1.79, 383.79 4.78, 389.99 4.88" stroke="#1e1e1e" stroke-width="4" fill="none"></path></g></g><mask></mask></svg>